<?xml version="1.0" standalone="no"?>
<!DOCTYPE svg PUBLIC "-//W3C//DTD SVG 1.1//EN" "http://www.w3.org/Graphics/SVG/1.1/DTD/svg11.dtd" >
<svg xmlns="http://www.w3.org/2000/svg">
<metadata>
This is a custom SVG webfont generated by Font Squirrel.
Copyright   : Copyright c 2008 by TypeTogether All rights reserved
Designer    : Veronika Burian Jos Scaglione
Foundry     : TypeTogether
Foundry URL : wwwtypetogethercom
</metadata>
<defs>
<font id="BreeExtraBold" horiz-adv-x="1095" >
<font-face units-per-em="2048" ascent="1475" descent="-573" />
<missing-glyph horiz-adv-x="389" />
<glyph unicode=" "  horiz-adv-x="389" />
<glyph unicode="&#x09;" horiz-adv-x="389" />
<glyph unicode="&#xa0;" horiz-adv-x="389" />
<glyph unicode="!" horiz-adv-x="550" d="M78 147q0 72 53 125.5t139 53.5q92 0 143.5 -50.5t51.5 -130.5q0 -74 -51.5 -127t-139.5 -53q-94 0 -145 52t-51 130zM102 1083v199q0 63 43 102t131.5 39t132.5 -41t44 -104v-195l-56 -675h-237z" />
<glyph unicode="&#x22;" horiz-adv-x="710" d="M76 1362h256l-23 -494h-213zM377 1362h258l-23 -494h-215z" />
<glyph unicode="#" horiz-adv-x="1075" d="M59 305v180h177l24 265h-162v182h176l29 307h197l-29 -307h172l29 307h194l-28 -307h172v-182h-187l-22 -265h170v-180h-187l-26 -305h-195l25 305h-170l-27 -305h-196l26 305h-162zM432 485h172l23 265h-170z" />
<glyph unicode="$" d="M27 137l129 318q76 -49 189.5 -90t180.5 -41q92 0 92 65q0 41 -29.5 59.5t-113.5 45.5q-14 4 -20 6q-68 20 -105 33.5t-96 47t-90 71.5t-56.5 104.5t-25.5 148.5q0 154 85 256.5t232 141.5v227h332v-230q199 -47 330 -184l-205 -250q-170 127 -283 127q-35 0 -60.5 -17.5 t-25.5 -47.5q0 -41 39 -64.5t131 -54.5q59 -20 90 -32.5t83.5 -37t81 -52.5t60.5 -67.5t45 -93t13 -118.5q0 -147 -80 -248t-219 -144v-237h-332v221q-109 16 -211 55t-161 82z" />
<glyph unicode="%" horiz-adv-x="1703" d="M72 973q0 190 93 281.5t246.5 91.5t242.5 -92.5t89 -276.5q0 -377 -344 -377q-327 0 -327 373zM342 963q0 -102 14.5 -142.5t44.5 -40.5q35 0 52.5 40t17.5 153q0 111 -15.5 149.5t-47.5 38.5q-35 0 -50.5 -39.5t-15.5 -158.5zM430 68l598 1280l250 -103l-602 -1284z M961 336q0 190 93 281.5t246.5 91.5t242.5 -92.5t89 -276.5q0 -377 -344 -377q-327 0 -327 373zM1231 326q0 -102 14.5 -142.5t44.5 -40.5q35 0 52.5 40t17.5 153q0 111 -15.5 149.5t-48.5 38.5q-35 0 -50 -39.5t-15 -158.5z" />
<glyph unicode="&#x26;" horiz-adv-x="1703" d="M96 565q0 252 142.5 425t414.5 173q158 0 249 -73.5t91 -198.5q0 -66 -24 -117q193 131 303 524l348 -100q-117 -391 -412 -575h400v-289h-201q-193 -369 -657 -369q-330 0 -492 169t-162 431zM487 672q82 6 131.5 45t49.5 96q0 61 -60 61q-51 0 -85 -53t-36 -149z M506 449q51 -170 270 -170q109 0 201 68.5t104 199.5q-123 -61 -253 -82q-108 -17 -260 -17q-30 0 -62 1z" />
<glyph unicode="'" horiz-adv-x="407" d="M76 1362h256l-23 -494h-213z" />
<glyph unicode="(" horiz-adv-x="700" d="M70 524q0 256 80.5 523.5t224.5 496.5l319 -137q-213 -426 -213 -852q0 -221 53.5 -416.5t165.5 -417.5l-315 -159q-315 468 -315 962z" />
<glyph unicode=")" horiz-adv-x="700" d="M0 -279q113 221 166 417t53 417q0 426 -213 852l320 137q143 -229 224 -496.5t81 -523.5q0 -494 -316 -962z" />
<glyph unicode="*" horiz-adv-x="909" d="M51 1255q28 85 106 85q31 0 70 -13q43 -14 93.5 -59t87.5 -115l-7 -16q-98 -51 -180 -51q-36 0 -69 10q-108 37 -109 115q0 20 8 44zM197 977q63 92 221 119l14 -11q8 -46 8 -85q0 -99 -47 -166q-55 -71 -112 -72q-35 0 -70 26q-54 40 -54 92q0 44 40 97zM334 1415 q0 145 121 146q123 0 123 -146q0 -115 -111 -225h-18q-115 114 -115 225zM481 1085l15 11q156 -23 227 -115q39 -55 39 -100q0 -51 -51 -86q-40 -29 -77 -29q-58 0 -108 72q-51 69 -50 174q-1 34 5 73zM506 1153q35 70 85 118t95 62q38 12 69 12q78 0 103 -79q9 -27 9 -51 q0 -81 -107 -111q-37 -14 -79 -14q-77 0 -169 47z" />
<glyph unicode="+" d="M133 463v330h248v280h334v-280h248v-330h-248v-273h-334v273h-248z" />
<glyph unicode="," horiz-adv-x="520" d="M12 -328q43 399 80 500q35 113 148 113q66 0 137.5 -43t109.5 -86l-258 -555z" />
<glyph unicode="-" horiz-adv-x="659" d="M61 424v299h537v-299h-537z" />
<glyph unicode="." horiz-adv-x="493" d="M57 143q0 78 49.5 128.5t137.5 50.5q94 0 143 -47.5t49 -129.5q0 -80 -48 -131t-138 -51q-94 0 -143.5 50t-49.5 130z" />
<glyph unicode="/" horiz-adv-x="993" d="M43 -133l578 1724l352 -121l-582 -1728z" />
<glyph unicode="0" d="M33 668q0 344 140 511t382 167q244 0 376 -166t132 -508q0 -360 -133 -525t-387 -165q-260 0 -385 168t-125 518zM446 645q0 -338 101 -338q106 0 106 361q0 344 -102 344q-53 0 -79 -81t-26 -286z" />
<glyph unicode="1" horiz-adv-x="1060" d="M49 1053l432 266h336l-26 -293v-717h202v-309h-827v309h209v557l-174 -86z" />
<glyph unicode="2" horiz-adv-x="1077" d="M23 1106q244 240 526 240q219 0 333.5 -112t114.5 -296q0 -207 -180 -399l-192 -207h403v-332h-989v242l410 454q59 63 83.5 104.5t24.5 88.5q0 82 -74 82q-88 0 -237 -140z" />
<glyph unicode="3" horiz-adv-x="1058" d="M35 1147q43 37 106.5 76t189.5 81t253 42q180 0 287.5 -91.5t107.5 -234.5q0 -176 -158 -287q174 -170 174 -342t-125 -290.5t-370 -118.5q-250 0 -461 112l108 326q72 -39 172.5 -64.5t155.5 -25.5q104 0 105 55q0 33 -52 135q-117 -33 -223 -49l-92 287 q164 31 255 68.5t91 97.5q0 66 -72 65q-78 0 -262 -104z" />
<glyph unicode="4" horiz-adv-x="1169" d="M70 268v258l385 840l327 -162l-282 -618h92l131 286h235v-286h158v-324h-160v-262h-413v268h-473z" />
<glyph unicode="5" horiz-adv-x="1093" d="M29 90l114 324q188 -94 314 -95q109 0 108 99q0 152 -411 151l90 750h743v-338h-414l-18 -164q197 -23 318.5 -121t121.5 -282q0 -172 -131 -302t-379 -130q-235 -1 -456 108z" />
<glyph unicode="6" horiz-adv-x="1093" d="M66 575q0 109 18 209.5t69.5 208t131.5 188.5t213 138t307 70l80 -306q-334 -43 -393 -262q74 39 186 39q170 0 260 -104.5t90 -296.5q0 -227 -121 -352t-358 -125q-246 0 -364.5 154t-118.5 439zM467 563q2 -150 19.5 -210t62.5 -60q80 0 80 145.5t-72 145.5 q-49 -1 -90 -21z" />
<glyph unicode="7" horiz-adv-x="1042" d="M39 981v338h973v-266q-84 -66 -150.5 -148t-106.5 -149.5t-69 -159.5t-41 -140t-18 -135.5t-6 -98.5v-72v-150h-437v166q0 98 7.5 173t33 189.5t89 230t163.5 222.5h-438z" />
<glyph unicode="8" horiz-adv-x="1107" d="M53 350q0 182 189 340q-154 119 -154 281q0 168 127 271.5t350 103.5q221 0 325.5 -92.5t104.5 -237.5q0 -143 -145 -293q205 -154 205 -346q0 -172 -131 -283.5t-389 -111.5q-139 0 -238.5 32.5t-150 89t-72 116.5t-21.5 130zM436 371q0 -41 23.5 -71t68.5 -30 q43 0 66.5 24.5t23.5 63.5q0 33 -17 63t-38.5 50.5t-60.5 52.5q-66 -83 -66 -153zM477 1001q0 -59 90 -129q68 68 68 129q0 78 -82 78q-27 0 -51.5 -19.5t-24.5 -58.5z" />
<glyph unicode="9" d="M59 868q0 225 126 351.5t364 126.5q473 0 473 -592q0 -111 -16.5 -208t-65.5 -202.5t-128 -181.5t-215 -129t-314 -62l-82 305q172 23 269 71t130 165q-86 -43 -192 -43q-170 0 -259.5 103t-89.5 296zM459 888.5q0 -145.5 71 -145.5q49 0 91 21q-2 147 -19.5 208.5 t-62.5 61.5q-80 0 -80 -145.5z" />
<glyph unicode=":" horiz-adv-x="493" d="M57 143q0 78 49.5 128.5t137.5 50.5q94 0 143 -47.5t49 -129.5q0 -80 -48 -131t-138 -51q-94 0 -143.5 50t-49.5 130zM57 881q0 78 49.5 128t137.5 50q94 0 143 -47t49 -129q0 -80 -48 -131.5t-138 -51.5q-94 0 -143.5 50.5t-49.5 130.5z" />
<glyph unicode=";" horiz-adv-x="520" d="M12 -328q43 399 80 500q35 113 148 113q66 0 137.5 -43t109.5 -86l-258 -555zM104 881q0 78 49.5 128t137.5 50q94 0 143 -47t49 -129q0 -80 -48 -131.5t-138 -51.5q-94 0 -143.5 50.5t-49.5 130.5z" />
<glyph unicode="&#x3c;" d="M109 535v229l782 401l139 -301l-448 -205l450 -229l-141 -307z" />
<glyph unicode="=" d="M133 213v328h830v-328h-830zM133 678v328h830v-328h-830z" />
<glyph unicode="&#x3e;" d="M76 430l450 229l-448 205l139 301l782 -401v-229l-782 -412z" />
<glyph unicode="?" horiz-adv-x="851" d="M78 147q0 72 53 125.5t139 53.5q92 0 143.5 -50.5t51.5 -130.5q0 -74 -51.5 -127t-139.5 -53q-94 0 -145 52t-51 130zM84 1370q125 53 295 53q100 0 178 -26.5t119 -63.5t67.5 -86t33.5 -86t7 -71q0 -143 -71.5 -230.5t-223.5 -181.5q-43 -29 -59 -62.5t-16 -99.5v-123 h-295q-20 164 -21 234q0 66 13.5 111.5t50.5 80.5t57.5 48.5t77.5 45.5q55 31 78.5 59.5t23.5 76.5q0 84 -100 84q-33 0 -123 -23l-41 -12z" />
<glyph unicode="@" horiz-adv-x="1941" d="M119 446q0 403 258 641t639 238q350 0 578.5 -191.5t228.5 -551.5q0 -272 -137.5 -427t-356.5 -155h-203l-18 96l-10 2q-63 -96 -193 -96q-305 0 -305 401q0 215 114.5 345.5t329.5 130.5q152 0 328 -70v-588q76 0 127 85t51 251q0 252 -133 386t-401 134 q-305 0 -459 -173t-154 -449q0 -266 132.5 -442.5t377.5 -176.5q143 0 263 47l71 -223q-147 -59 -340 -59q-201 0 -357.5 72.5t-247.5 195.5t-137 269t-46 308zM918 432q0 -199 79 -199q53 0 54 101v319q-16 4 -27 4q-55 0 -80.5 -64.5t-25.5 -160.5z" />
<glyph unicode="A" horiz-adv-x="1355" d="M-6 0l434 1362h469l465 -1362h-451l-71 242h-359l-73 -242h-414zM549 549h223l-106 414h-13z" />
<glyph unicode="B" horiz-adv-x="1232" d="M94 0v1362h563q473 0 473 -356q0 -152 -129 -273q197 -102 197 -307q0 -207 -149.5 -316.5t-427.5 -109.5h-527zM520 840h62q57 0 86.5 31.5t29.5 78.5q0 104 -104 105h-74v-215zM520 319h88q137 0 137 119q0 106 -129 107h-96v-226z" />
<glyph unicode="C" horiz-adv-x="1218" d="M55 666q0 195 55.5 340t150.5 225t204.5 117.5t234.5 37.5q352 0 525 -303l-297 -213q-117 164 -238 164q-90 0 -144 -87t-54 -257q0 -369 233 -368q123 0 262 129l213 -275q-119 -106 -235.5 -153.5t-264.5 -47.5q-299 0 -472 179.5t-173 511.5z" />
<glyph unicode="D" horiz-adv-x="1327" d="M94 0v1362h502q324 0 500 -157.5t176 -479.5q0 -190 -54.5 -334.5t-149.5 -227.5t-212 -123t-254 -40h-508zM520 1032v-704h86q115 0 177.5 91t62.5 273q0 340 -260 340h-66z" />
<glyph unicode="E" horiz-adv-x="1107" d="M94 0v1362h940v-373h-514v-110h441v-369h-441v-137h529v-373h-955z" />
<glyph unicode="F" horiz-adv-x="1134" d="M94 0v1362h987v-373h-561v-131h465v-373h-465v-485h-426z" />
<glyph unicode="G" horiz-adv-x="1308" d="M55 678q0 190 56.5 332.5t152.5 221.5t205 116.5t229 37.5q371 0 539 -290l-307 -219q-115 156 -236 155q-94 0 -148 -83t-54 -249q0 -385 225 -385q59 0 125 17v360h389v-571q-88 -66 -229.5 -106t-299.5 -40q-303 0 -475 178.5t-172 524.5z" />
<glyph unicode="H" horiz-adv-x="1366" d="M94 0v1362h426v-504h322v504h430v-1362h-430v485h-322v-485h-426z" />
<glyph unicode="I" horiz-adv-x="634" d="M104 0v1362h426v-1362h-426z" />
<glyph unicode="J" horiz-adv-x="927" d="M-4 70l110 315q102 -53 187 -53q125 0 125 141v889h426v-920q0 -127 -19 -188q-35 -127 -155.5 -203t-278.5 -76q-221 1 -395 95z" />
<glyph unicode="K" horiz-adv-x="1245" d="M94 0v1362h424v-430h6l262 430h463l-383 -592l404 -770h-484l-202 432l-66 -98v-334h-424z" />
<glyph unicode="L" horiz-adv-x="1077" d="M94 0v1362h426v-987h518v-375h-944z" />
<glyph unicode="M" horiz-adv-x="1599" d="M61 0l78 1362h430l228 -672h10l235 672h426l70 -1362h-403l-31 547h-10l-148 -420h-291l-151 408h-8l-33 -535h-402z" />
<glyph unicode="N" horiz-adv-x="1353" d="M94 0v1362h377l360 -594h7v594h422v-1362h-363l-375 608h-8v-608h-420z" />
<glyph unicode="O" horiz-adv-x="1368" d="M55 678q0 188 57.5 330.5t155 221.5t208 117.5t231.5 38.5q127 0 232 -38.5t191.5 -119.5t134.5 -221.5t48 -328.5q0 -340 -172 -521.5t-465 -181.5q-297 0 -459 179.5t-162 523.5zM492 696q0 -373 198 -372q188 0 189 348q0 63 -8.5 119.5t-28 115t-61.5 93t-101 34.5 q-98 0 -143 -96.5t-45 -241.5z" />
<glyph unicode="P" horiz-adv-x="1177" d="M94 0v1362h522q254 0 396.5 -114.5t142.5 -327.5q0 -236 -158.5 -362t-421.5 -126h-55v-432h-426zM520 762h33q84 0 124 28.5t40 106.5q0 133 -117 133h-80v-268z" />
<glyph unicode="Q" horiz-adv-x="1388" d="M80 920q0 215 157.5 340.5t397.5 125.5q276 0 455.5 -161.5t179.5 -489.5q0 -270 -133 -506q123 -117 242.5 -193.5t252.5 -94.5l-80 -316q-162 20 -343 126t-294 239q-184 -147 -407 -148q-217 0 -318.5 95.5t-101.5 236.5q0 139 104.5 233.5t301.5 94.5q168 0 297 -74 q45 131 45 279q0 139 -53.5 236t-157.5 97q-63 0 -101.5 -33.5t-38.5 -93.5q0 -72 54.5 -102.5t152.5 -38.5l-63 -211q-51 -8 -113 -8q-193 0 -314.5 98.5t-121.5 268.5zM440 184q0 -66 80 -65q37 0 81 23.5t67 56.5q-23 16 -72 33.5t-82 17.5q-35 0 -54.5 -19.5 t-19.5 -46.5z" />
<glyph unicode="R" horiz-adv-x="1261" d="M94 0v1362h508q264 0 407.5 -90t143.5 -303q0 -111 -58.5 -203t-146.5 -133q51 -29 94 -123l226 -510h-459l-178 446q-25 55 -92 56h-19v-502h-426zM520 797h82q55 0 86 32.5t31 92t-28.5 85t-92.5 25.5h-78v-235z" />
<glyph unicode="S" horiz-adv-x="1124" d="M0 123l139 348q80 -49 201 -89t192 -40q86 0 86 68q0 37 -36.5 58t-128.5 48q-78 23 -135.5 48.5t-123 73.5t-100.5 124t-35 176q0 213 145.5 330.5t373.5 117.5q150 0 288 -55t236 -155l-219 -279q-190 133 -301 133q-78 0 -78 -59q0 -39 43 -63.5t141 -55.5 q68 -23 113 -41t102.5 -54t91 -77t58 -106.5t24.5 -145.5q0 -215 -151.5 -334t-393.5 -119q-143 0 -296.5 46.5t-235.5 101.5z" />
<glyph unicode="T" horiz-adv-x="1189" d="M29 989v373h1132v-373h-360v-989h-426v989h-346z" />
<glyph unicode="U" horiz-adv-x="1288" d="M84 461v901h424v-875q0 -158 141 -157q59 0 95 38t36 109v885h424v-928q0 -211 -155.5 -335t-407.5 -124q-281 0 -419 118t-138 368z" />
<glyph unicode="V" horiz-adv-x="1314" d="M-4 1362h426l235 -873h9l243 873h410l-447 -1362h-438z" />
<glyph unicode="W" horiz-adv-x="1685" d="M0 1362h426l121 -758h6l117 660h403l98 -623h11l80 721h424l-256 -1362h-433l-127 627h-12l-135 -627h-442z" />
<glyph unicode="X" horiz-adv-x="1392" d="M-25 0l480 711l-426 651h487l199 -336l209 336h473l-443 -649l461 -713h-487l-223 369l-232 -369h-498z" />
<glyph unicode="Y" horiz-adv-x="1280" d="M-20 1362h464l191 -444h8l215 444h442l-458 -836v-526h-426v524z" />
<glyph unicode="Z" horiz-adv-x="1103" d="M37 0v250l504 790h-496v322h1010v-232l-518 -806h538v-324h-1038z" />
<glyph unicode="[" horiz-adv-x="626" d="M90 -387v1896h528v-252h-155v-1392h155v-252h-528z" />
<glyph unicode="\" horiz-adv-x="993" d="M41 1464l346 125l582 -1728l-351 -121z" />
<glyph unicode="]" horiz-adv-x="626" d="M8 -135h156v1392h-156v252h529v-1896h-529v252z" />
<glyph unicode="^" horiz-adv-x="1208" d="M98 596l394 825h247l391 -825l-331 -49l-187 428l-184 -426z" />
<glyph unicode="_" horiz-adv-x="1024" d="M0 -152h1024v-208h-1024v208z" />
<glyph unicode="`" horiz-adv-x="1024" d="M270 1507q0 70 65.5 116t145.5 67l269 -441l-113 -94q-47 27 -137 93.5t-154 127.5q-76 76 -76 131z" />
<glyph unicode="a" horiz-adv-x="1118" d="M41 483q0 276 147.5 442.5t423.5 166.5q195 0 418 -88v-766l27 -238h-346l-19 86l-12 2q-82 -123 -238 -123q-401 0 -401 518zM449 518q0 -258 102 -258q31 0 51.5 21.5t20.5 50.5v467q-25 8 -52 8q-63 0 -92.5 -83t-29.5 -206z" />
<glyph unicode="b" horiz-adv-x="1105" d="M84 49v1374h414v-364q88 33 178 33q188 0 293.5 -129t105.5 -392q0 -297 -140 -450.5t-407 -153.5q-117 0 -243.5 24.5t-200.5 57.5zM498 256q25 -6 53 -6q33 0 55.5 16.5t33.5 37t17.5 62.5t7.5 71.5t1 82.5q0 141 -24 212t-89 71q-55 0 -55 -58v-489z" />
<glyph unicode="c" horiz-adv-x="978" d="M41 512q0 283 154.5 431.5t373.5 148.5q283 0 420 -226l-248 -213q-27 37 -44 57.5t-46.5 39t-60.5 18.5q-135 0 -135 -238q0 -119 44 -181t124 -62q82 0 200 78l142 -279q-162 -121 -406 -121q-240 0 -379 140.5t-139 406.5z" />
<glyph unicode="d" horiz-adv-x="1120" d="M41 469q0 279 138 451t390 172q16 0 35 -1t21 -1v333h407v-1185l27 -238h-342l-23 88h-12q-20 -47 -82.5 -85t-146.5 -38q-412 0 -412 504zM451 500q0 -240 98 -240q31 0 53.5 22.5t22.5 49.5v469q-14 2 -28 2q-37 0 -65 -18q-37 -24 -53 -75t-22 -99t-6 -111z" />
<glyph unicode="e" horiz-adv-x="991" d="M41 496q0 115 35 219t100.5 189t172 136.5t239.5 51.5q176 0 278.5 -86t102.5 -261q0 -326 -506 -374q27 -100 162 -101q121 0 249 84l105 -270l-76 -43q-162 -74 -342 -74q-268 0 -394 140.5t-126 388.5zM442 614q80 8 127 48t47 88q0 55 -53 55q-47 0 -82 -48.5 t-39 -142.5z" />
<glyph unicode="f" horiz-adv-x="770" d="M92 -430v1526q0 72 6 125t31 114.5t67 100.5t118.5 64.5t183.5 25.5q78 0 178 -28t174 -68l-88 -261q-109 57 -182 58q-37 0 -56.5 -17.5t-19.5 -66.5v-84h266v-322h-266v-1167h-412z" />
<glyph unicode="g" horiz-adv-x="1099" d="M29 547q0 260 153.5 402.5t407.5 142.5q252 0 436 -78v-817q0 -156 -6 -222q-16 -248 -143 -383t-363 -135q-188 0 -287.5 79t-99.5 214q0 209 203 367q-127 23 -214 138.5t-87 291.5zM442 547q0 -70 5.5 -115t28 -82t63.5 -37q33 0 54 24.5t21 76.5v387q-13 2 -25 2 q-48 0 -81 -32q-41 -40 -53.5 -95t-12.5 -129zM481 -172q0 -80 68 -80q43 0 58.5 32t15.5 111v189q-53 -41 -97.5 -107.5t-44.5 -144.5z" />
<glyph unicode="h" d="M74 0v1423h413v-381q86 49 199 50q336 0 336 -375v-717h-414v672q0 104 -49 104q-72 0 -72 -102v-674h-413z" />
<glyph unicode="i" horiz-adv-x="579" d="M88 1362q0 82 57.5 139.5t151.5 57.5t153.5 -57.5t59.5 -139.5q0 -84 -58.5 -139.5t-152.5 -55.5q-96 0 -153.5 55.5t-57.5 139.5zM92 0v1059h416v-1059h-416z" />
<glyph unicode="j" horiz-adv-x="577" d="M-213 -373l102 281q68 -31 115 -31q88 0 88 131v1051h412v-1092q0 -74 -5 -123t-25.5 -111.5t-58.5 -100.5t-110 -64.5t-172 -26.5q-194 0 -346 86zM94 1362q0 82 57.5 139.5t153.5 57.5q92 0 151.5 -57.5t59.5 -139.5q0 -84 -58.5 -139.5t-152.5 -55.5 q-96 0 -153.5 55.5t-57.5 139.5z" />
<glyph unicode="k" horiz-adv-x="1130" d="M84 0v1423h416v-555h12q115 223 336 224q109 0 183.5 -64.5t74.5 -193.5q0 -195 -199 -318l250 -516h-477l-170 457h-10v-457h-416zM508 612q72 4 130 43t58 86q0 27 -16 42.5t-41 15.5q-49 0 -87 -55.5t-44 -131.5z" />
<glyph unicode="l" horiz-adv-x="747" d="M84 399v1024h414v-1028q0 -106 71 -106q33 0 115 33l86 -271q-115 -84 -315 -84q-125 0 -204 36t-113 105.5t-44 133t-10 157.5z" />
<glyph unicode="m" horiz-adv-x="1619" d="M63 1059h340l23 -96q51 63 111.5 96t158.5 33q180 0 262 -113q102 113 267 113q322 0 321 -365v-727h-413v664q0 43 -2.5 62t-12.5 34.5t-33 15.5q-39 0 -50 -26.5t-11 -87.5v-662h-414v664q0 61 -8 86.5t-39 25.5q-39 0 -50 -25.5t-11 -86.5v-664h-412v827z" />
<glyph unicode="n" horiz-adv-x="1114" d="M63 1059h340l23 -96q98 129 287 129q154 0 240.5 -89.5t86.5 -275.5v-727h-413v664q0 61 -9.5 86.5t-39.5 25.5q-76 0 -76 -112v-664h-410v827z" />
<glyph unicode="o" horiz-adv-x="1093" d="M41 516q0 154 48 270.5t127 180t167 94.5t180 31q61 0 117.5 -8.5t130.5 -41t126 -88t89 -159t37 -242.5q0 -274 -149.5 -430t-378.5 -156q-233 0 -363.5 138.5t-130.5 410.5zM465 561q0 -147 16.5 -222t69.5 -75q47 0 66.5 58.5t19.5 201.5q0 150 -19.5 212.5 t-68.5 62.5q-84 0 -84 -238z" />
<glyph unicode="p" horiz-adv-x="1132" d="M92 -430v1438q233 84 490 84q250 0 380 -141.5t130 -415.5q0 -272 -126 -420t-350 -148q-53 0 -110 13v-410h-414zM506 262q33 -12 57 -12q39 0 62.5 19.5t34 64.5t12.5 82t2 104q0 145 -18.5 209t-84.5 64q-39 0 -65 -11v-520z" />
<glyph unicode="q" horiz-adv-x="1120" d="M41 500q0 258 149.5 425t405.5 167q217 0 438 -86v-1436h-413v434h-7q-53 -37 -151 -37q-197 0 -309.5 134.5t-112.5 398.5zM449 500q0 -240 98 -240q37 0 56.5 21.5t19.5 50.5v469q-19 3 -36 2q-33 0 -58 -10q-36 -16 -53 -61.5t-22 -97.5t-5 -134z" />
<glyph unicode="r" horiz-adv-x="831" d="M63 1059h330l33 -141q74 174 233 174q102 0 170 -39l-51 -346q-82 37 -149 36q-121 0 -121 -108v-635h-414v838z" />
<glyph unicode="s" horiz-adv-x="917" d="M4 86l100 289q70 -41 165.5 -76t154.5 -35q53 0 53 41q0 18 -16.5 32.5t-31.5 21t-54 20.5q-82 27 -120 43t-97.5 55t-86 97.5t-26.5 138.5q0 172 127 275.5t309 103.5q260 0 437 -160l-181 -234q-147 102 -229 103q-59 0 -59 -47q0 -27 26.5 -45.5t85.5 -38.5 q78 -29 119 -47.5t98.5 -58.5t84 -97t26.5 -135q0 -176 -120 -270.5t-325 -94.5q-135 0 -254.5 37t-185.5 82z" />
<glyph unicode="t" horiz-adv-x="794" d="M88 391v1032h416v-364h244v-320h-244v-327q0 -135 112 -136q43 0 95 29l86 -262q-121 -76 -316 -76q-106 0 -182 25.5t-117 63.5t-62.5 99.5t-26.5 111.5t-5 124z" />
<glyph unicode="u" horiz-adv-x="1122" d="M84 354v705h414v-660q0 -61 10 -87.5t45 -26.5q31 0 49.5 27.5t18.5 70.5v676h413v-842l25 -217h-346l-15 84h-12q-88 -111 -246 -111q-356 0 -356 381z" />
<glyph unicode="v" horiz-adv-x="1085" d="M84 352v707h416v-672q0 -57 10 -77.5t37 -20.5q88 0 88 280q0 215 -70 490h406q70 -240 69 -486q0 -600 -540 -600q-213 0 -314.5 94.5t-101.5 284.5z" />
<glyph unicode="w" horiz-adv-x="1585" d="M84 354v705h414v-703q0 -70 45 -69q53 0 53 84v688h410v-697q0 -29 1 -42t10 -23t30 -10q86 0 86 280q0 217 -66 492h408q66 -236 65 -486q0 -291 -122 -445.5t-353 -154.5q-174 0 -283 119q-121 -119 -309 -119t-288.5 96.5t-100.5 284.5z" />
<glyph unicode="x" horiz-adv-x="1079" d="M-37 0l354 535l-323 524h438l119 -221l127 221h424l-334 -520l348 -539h-454l-125 231l-121 -231h-453z" />
<glyph unicode="y" horiz-adv-x="1110" d="M84 418v641h414v-633q0 -57 10 -82t47 -25q25 0 45.5 28t20.5 73v639h415v-756q0 -229 -2 -287q-12 -274 -144 -417.5t-382 -143.5q-180 0 -276.5 78t-96.5 215q0 199 193 346q-129 29 -186.5 108t-57.5 216zM489 -172q0 -80 68 -80q41 0 57.5 29.5t16.5 97.5v205 q-53 -41 -97.5 -107.5t-44.5 -144.5z" />
<glyph unicode="z" horiz-adv-x="923" d="M-2 -203q0 266 287 426q-66 39 -172 74v199l270 247h-354v316h882v-215l-395 -383l100 -41q154 -61 231 -179t77 -272q0 -223 -147.5 -367.5t-373.5 -144.5q-201 0 -303 90t-102 250zM358 -156q0 -86 78 -86q49 0 78 49.5t29 124.5q0 94 -45 138q-140 -107 -140 -226z " />
<glyph unicode="{" horiz-adv-x="733" d="M43 449v253h6q83 0 115 55q25 43 25 121q0 24 -3 52q-16 229 -16 291q0 33 12 82q29 98 116 154t224 56q123 0 211 -20l-26 -240q-49 8 -76 9q-61 0 -80 -37t-19 -113q0 -41 10.5 -136t10.5 -153q0 -178 -152 -248q78 -25 113 -77t35 -156q0 -57 -14.5 -177t-14.5 -161 q0 -76 18.5 -112.5t79.5 -36.5q29 0 78 8l25 -244q-88 -20 -211 -20q-141 0 -228 58t-114 155q-10 47 -10 84q0 113 22 325q5 39 5 71q0 69 -21 105q-30 51 -114 52h-7z" />
<glyph unicode="|" horiz-adv-x="763" d="M211 -180v1710h344v-1710h-344z" />
<glyph unicode="}" horiz-adv-x="733" d="M0 1493q88 20 211 20q137 0 224 -56t116 -154q12 -49 12 -82q0 -61 -16 -291q-2 -28 -3 -52q0 -78 25 -121q32 -54 115 -55h6v-253h-6q-85 0 -115 -52q-21 -36 -21 -105q0 -32 5 -71q23 -213 22 -325q0 -37 -10 -84q-27 -96 -113.5 -154.5t-228.5 -58.5q-123 0 -211 20 l25 244q49 -8 78 -8q61 0 79.5 36.5t18.5 112.5q0 41 -14.5 161t-14.5 177q0 104 35 156.5t113 76.5q-152 70 -152 248q0 57 10.5 152.5t10.5 136.5q0 76 -18.5 113t-80.5 37q-27 0 -75 -9z" />
<glyph unicode="~" horiz-adv-x="1316" d="M-8 629q51 66 80.5 99.5t83 82.5t113 71.5t126.5 22.5q90 0 246 -75.5t231 -75.5q106 0 220 149l233 -201q-152 -268 -410 -268q-117 0 -269 70.5t-200 70.5q-55 0 -105 -36.5t-118 -110.5z" />
<glyph unicode="&#xa1;" horiz-adv-x="548" d="M102 907q0 74 51.5 127t139.5 53q94 0 145 -52t51 -130q0 -72 -53 -125t-139 -53q-92 0 -143.5 50t-51.5 130zM115 -31l55 676h238l57 -676v-198q0 -63 -43 -102.5t-131 -39.5t-132 41t-44 105v194z" />
<glyph unicode="&#xa2;" d="M100 633q0 223 97.5 355t251.5 175v240h331v-238q162 -55 258 -207l-245 -206q-84 119 -156 118q-139 0 -139 -221q0 -225 139 -225q76 0 156 119l245 -207q-106 -164 -258 -207v-252h-331v252q-156 41 -252.5 166t-96.5 338z" />
<glyph unicode="&#xa3;" horiz-adv-x="1222" d="M-23 -78q74 25 120 71t69 138l29 109h-109v272h158l78 379q49 240 164.5 347.5t320.5 107.5q150 0 258 -60.5t172 -134.5l-203 -233q-111 111 -192 110q-55 0 -82 -33.5t-45 -126.5l-74 -356h252v-270h-303l-12 -49q-37 -160 -162 -265l4 -6q111 41 192 41 q66 0 179.5 -19.5t166.5 -19.5q82 0 146 31l-41 -332q-72 -14 -131 -14q-96 0 -310 39t-323 39q-166 0 -322 -80v315z" />
<glyph unicode="&#xa5;" horiz-adv-x="1214" d="M10 1319h422l168 -447h10l187 447h407l-264 -518h119v-234h-256v-108h256v-234h-256v-225h-426v225h-248v234h248v108h-248v234h121z" />
<glyph unicode="&#xa6;" horiz-adv-x="763" d="M211 -180v758h342v-758h-342zM211 817v713h342v-713h-342z" />
<glyph unicode="&#xa7;" horiz-adv-x="1163" d="M82 719l254 76q-76 98 -76 249q0 49 17.5 102.5t56.5 110t120 93t191 36.5q141 0 258 -38l-49 -265q-86 25 -141 25q-41 0 -66.5 -22.5t-25.5 -59.5q0 -41 30.5 -78t93.5 -94q70 -63 108 -103t96.5 -122t91 -188.5t40.5 -237.5l-268 -82q70 -98 70 -238 q0 -51 -19.5 -106.5t-60.5 -108.5t-119 -88t-180 -35q-184 0 -277 41l49 275q92 -29 162 -29q84 0 84 64q0 66 -123 174l-85 80q-30 29 -81 93t-78.5 124.5t-50 154t-22.5 197.5zM414 705q35 -119 96 -222.5t109.5 -156t132.5 -131.5q-78 266 -338 510z" />
<glyph unicode="&#xa8;" horiz-adv-x="1024" d="M102 1376q0 70 49.5 117t129 47t129 -47t49.5 -116.5t-49.5 -117t-128.5 -47.5q-82 0 -130.5 46t-48.5 118zM559 1376q0 70 49 117t129 47t129 -47t49 -116.5t-49 -117t-129 -47.5q-82 0 -130 46t-48 118z" />
<glyph unicode="&#xa9;" horiz-adv-x="1669" d="M102 668q0 311 203 513.5t520 202.5q324 0 533 -200.5t209 -503.5q0 -317 -208 -519t-534 -202q-332 0 -527.5 198t-195.5 511zM293 668q0 -242 149.5 -393.5t384.5 -151.5q244 0 397.5 149.5t153.5 395.5q0 242 -155.5 397.5t-395.5 155.5q-242 0 -388 -153.5 t-146 -399.5zM451 668q0 207 107.5 320.5t283.5 113.5q106 0 191 -49t128 -125l-162 -123q-70 88 -147 88q-158 0 -158 -219q0 -223 158 -223q41 0 77 13t54 26.5t55 46.5l125 -156q-131 -135 -321 -135q-106 0 -186.5 39t-123.5 104.5t-62 135t-19 143.5z" />
<glyph unicode="&#xaa;" horiz-adv-x="899" d="M90 860q0 178 107.5 285.5t298.5 107.5q139 0 297 -55v-502l16 -149h-246l-10 76h-10q-63 -98 -176 -99q-150 0 -213.5 94.5t-63.5 241.5zM381 879q0 -78 14.5 -118t57.5 -40q49 0 49 51v279q-12 4 -37 4q-84 0 -84 -176z" />
<glyph unicode="&#xab;" horiz-adv-x="1267" d="M90 549q0 63 74 133q186 174 366 305l152 -147l-209 -305l195 -320l-146 -135q-104 72 -237 192.5t-176 200.5q-19 35 -19 76zM616 549q0 63 74 133q186 174 367 305l151 -147l-209 -305l195 -320l-145 -135q-104 72 -237.5 192.5t-176.5 200.5q-19 35 -19 76z" />
<glyph unicode="&#xac;" d="M106 557v322h879v-639h-311v317h-568z" />
<glyph unicode="&#xad;" horiz-adv-x="659" d="M57 424v299h547v-299h-547z" />
<glyph unicode="&#xae;" horiz-adv-x="948" d="M61 985q0 174 115 287.5t293 113.5q182 0 300 -113.5t118 -283.5q0 -176 -117 -289.5t-301 -113.5q-186 0 -297 111.5t-111 287.5zM178 985q0 -131 82 -215t209 -84q131 0 216 83t85 216q0 129 -86 213t-215 84q-131 0 -211 -83t-80 -214zM332 774v432h155 q143 0 144 -116q0 -86 -70 -119q16 -8 27 -31l74 -166h-113l-64 144q-12 29 -32 28h-19v-172h-102zM434 1024h12q74 0 74 57q0 29 -18.5 38t-55.5 9h-12v-104z" />
<glyph unicode="&#xaf;" horiz-adv-x="1024" d="M164 1241v266h696v-266h-696z" />
<glyph unicode="&#xb0;" horiz-adv-x="610" d="M43 1231q0 115 75 191.5t187 76.5q119 0 190.5 -74.5t71.5 -181.5q0 -123 -75.5 -202.5t-192.5 -79.5q-119 0 -187.5 76.5t-68.5 193.5zM213 1231q0 -49 24.5 -81t67.5 -32t67.5 33t24.5 80t-23.5 76.5t-68.5 29.5q-92 0 -92 -106z" />
<glyph unicode="&#xb1;" d="M133 0v326h248v151h-248v330h248v283h336v-283h246v-330h-246v-151h246v-326h-830z" />
<glyph unicode="&#xb2;" horiz-adv-x="772" d="M53 1360q160 150 342 149q143 0 219 -62.5t76 -170.5q0 -129 -133 -262l-90 -92h240v-224h-617v164l246 268q53 59 53 99q0 47 -43 47q-51 0 -145 -84z" />
<glyph unicode="&#xb3;" horiz-adv-x="772" d="M70 1382q47 41 142 84t210 43q121 0 191.5 -56t70.5 -146q0 -106 -98 -170q109 -80 108.5 -190.5t-82.5 -184.5t-241 -74q-141 0 -293 72l69 190q102 -57 201 -57q68 0 68 43q0 23 -31 80q-35 -12 -152 -29l-51 162q127 27 168 43q53 20 53 61q0 39 -45 39 q-55 0 -170 -67z" />
<glyph unicode="&#xb4;" horiz-adv-x="1024" d="M274 1249l267 441q80 -20 145.5 -66.5t65.5 -116.5q0 -55 -76 -131q-63 -61 -153.5 -127.5t-137.5 -93.5z" />
<glyph unicode="&#xb5;" horiz-adv-x="1177" d="M109 -442v1501h380v-666q0 -143 97 -143q41 0 69.5 47t28.5 129v633h385v-758q0 -63 49 -63q18 0 43 6l29 -221q-100 -49 -219 -50q-145 0 -201 129q-18 -66 -62 -101.5t-102 -35.5q-76 0 -137 68v-475h-360z" />
<glyph unicode="&#xb6;" horiz-adv-x="1214" d="M53 884.5q0 239.5 147.5 358.5t393.5 119h526v-1155q0 -117 -10 -193.5t-45 -154.5t-100.5 -128t-176 -92t-272.5 -69l-82 344q174 29 232.5 84t58.5 176v903h-135v-651h-9q-226 0 -375 109q-153 110 -153 349.5z" />
<glyph unicode="&#xb7;" horiz-adv-x="653" d="M137 629q0 78 49.5 128t137.5 50q94 0 143 -47t49 -129q0 -80 -48 -130t-138 -50q-94 0 -143.5 49t-49.5 129z" />
<glyph unicode="&#xb8;" horiz-adv-x="1024" d="M262 -485l45 159q74 -27 139 -26q100 0 101 53q0 68 -189 68l76 237h158l-31 -112q94 -10 152.5 -60.5t58.5 -126.5q0 -70 -28.5 -119t-77 -71.5t-93.5 -30.5t-94 -8q-123 0 -217 37z" />
<glyph unicode="&#xb9;" horiz-adv-x="772" d="M57 1333l283 164h227l-16 -178v-408h127v-213h-543v213h141v303l-135 -51z" />
<glyph unicode="&#xba;" horiz-adv-x="858" d="M68 881q0 98 34.5 174t92 116.5t118 60t123.5 19.5q41 0 79 -5t91 -25.5t91 -55.5t66 -102.5t28 -159.5q0 -178 -109 -278.5t-264 -100.5q-160 0 -255 89.5t-95 267.5zM367 909q0 -63 3 -97t17 -59.5t41 -25.5q35 0 48 33t13 125q0 94 -13 131t-48 37q-61 -1 -61 -144z " />
<glyph unicode="&#xbb;" horiz-adv-x="1267" d="M59 840l152 147q180 -131 367 -305q74 -70 73 -133q0 -41 -18 -76q-43 -80 -176 -200.5t-238 -192.5l-145 135l194 320zM586 840l151 147q180 -131 367 -305q74 -70 74 -133q0 -41 -19 -76q-43 -80 -176 -200.5t-238 -192.5l-145 135l195 320z" />
<glyph unicode="&#xbc;" horiz-adv-x="1792" d="M18 1169l283 164h227l-16 -178v-407h127v-213h-543v213h142v303l-136 -52zM502 68l598 1280l250 -103l-602 -1284zM1094 160v139l247 532l222 -104l-195 -381h74l80 193h155v-193h97v-190h-99v-156h-270v160h-311z" />
<glyph unicode="&#xbd;" horiz-adv-x="1792" d="M29 1169l282 164h228l-17 -178v-407h127v-213h-543v213h142v303l-135 -52zM479 68l598 1280l250 -103l-602 -1284zM1110 662q160 150 342 149q143 0 219 -62.5t76 -170.5q0 -129 -133 -263l-90 -92h239v-223h-616v164l246 268q53 59 53 98q0 47 -43 48q-51 0 -146 -84z " />
<glyph unicode="&#xbe;" horiz-adv-x="1792" d="M25 1219q47 41 142 84t210 43q121 0 191.5 -56.5t70.5 -146.5q0 -106 -98 -170q109 -80 108.5 -190.5t-82.5 -184.5t-241 -74q-141 0 -293 72l69 190q102 -57 201 -57q68 0 68 43q0 23 -31 80q-35 -12 -152 -29l-51 162q127 27 168 43q53 20 53 62q0 39 -45 38 q-55 0 -170 -67zM485 68l598 1280l250 -103l-602 -1284zM1087 160v139l248 532l221 -104l-194 -381h74l80 193h155v-193h96v-190h-98v-156h-270v160h-312z" />
<glyph unicode="&#xbf;" horiz-adv-x="823" d="M47 -37q0 -35 7 -71.5t34 -86t68 -86t118.5 -63.5t178.5 -27q170 0 295 54l-52 272l-41 -12q-90 -23 -123 -23q-100 0 -100 84q0 47 23.5 76t79.5 59q57 33 77.5 46.5t57.5 48t50 80.5t13 112q0 70 -20 233h-295v-122q0 -66 -16.5 -100t-59.5 -62q-152 -94 -223.5 -181.5 t-71.5 -230.5zM367 907q0 74 51 127t139 53q94 0 145.5 -52t51.5 -130q0 -72 -53.5 -125t-139.5 -53q-92 0 -143 50t-51 130z" />
<glyph unicode="&#xc0;" horiz-adv-x="1355" d="M-6 0l434 1362h469l465 -1362h-451l-71 242h-359l-73 -242h-414zM385 1706q0 49 45 99t113 89l372 -356l-86 -117q-190 63 -333 144q-63 35 -87 66.5t-24 74.5zM549 549h223l-106 414h-13z" />
<glyph unicode="&#xc1;" horiz-adv-x="1355" d="M-6 0l434 1362h469l465 -1362h-451l-71 242h-359l-73 -242h-414zM438 1540l373 358q68 -39 113 -90t45 -100q0 -43 -23.5 -74.5t-87.5 -66.5q-154 -86 -334 -144zM549 549h223l-106 414h-13z" />
<glyph unicode="&#xc2;" horiz-adv-x="1355" d="M-6 0l434 1362h469l465 -1362h-451l-71 242h-359l-73 -242h-414zM311 1530q102 123 203 225q88 90 153.5 90t151.5 -86q123 -123 209 -227l-119 -115l-241 174l-236 -174zM549 549h223l-106 414h-13z" />
<glyph unicode="&#xc3;" horiz-adv-x="1355" d="M-6 0l434 1362h469l465 -1362h-451l-71 242h-359l-73 -242h-414zM346 1694q88 66 184 65q59 0 153.5 -27.5t143.5 -27.5q63 0 138 39l22 -230q-70 -41 -147 -40q-49 0 -154.5 24.5t-146.5 24.5q-82 0 -164 -45zM549 549h223l-106 414h-13z" />
<glyph unicode="&#xc4;" horiz-adv-x="1355" d="M-6 0l434 1362h469l465 -1362h-451l-71 242h-359l-73 -242h-414zM254 1608q0 70 49 118t129 48t129 -48.5t49 -118t-49 -116.5t-129 -47q-82 0 -130 46t-48 118zM549 549h223l-106 414h-13zM729 1608q0 70 49 118t129 48t129 -48.5t49 -118t-49 -116.5t-129 -47 q-82 0 -130 46t-48 118z" />
<glyph unicode="&#xc5;" horiz-adv-x="1355" d="M-6 0l438 1368q-10 29 -10 76q0 102 70.5 170.5t175.5 68.5q115 0 180 -65.5t65 -163.5q0 -51 -18 -94l467 -1360h-451l-71 242h-359l-73 -242h-414zM549 549h223l-106 414h-13zM596 1444q0 -78 71.5 -78t71.5 78q0 82 -71.5 82t-71.5 -82z" />
<glyph unicode="&#xc6;" horiz-adv-x="1736" d="M-4 0l434 1362h1231v-373h-571l36 -110h463v-369h-391l45 -137h432v-373h-768l-82 287h-333l-86 -287h-410zM563 594h197l-90 352h-11z" />
<glyph unicode="&#xc7;" horiz-adv-x="1216" d="M55 666q0 195 55.5 340t150.5 225t204.5 117.5t234.5 37.5q352 0 525 -303l-297 -213q-117 164 -238 164q-90 0 -144 -87t-54 -257q0 -369 233 -368q123 0 262 129l213 -275q-215 -193 -473 -201l-22 -81q94 -10 152 -60.5t58 -126.5q0 -70 -28.5 -119t-76.5 -71.5 t-93 -30.5t-94 -8q-123 0 -217 37l45 159q74 -27 139 -26q100 0 100 53q0 68 -188 68l67 217q-242 37 -378 212t-136 468z" />
<glyph unicode="&#xc8;" horiz-adv-x="1107" d="M94 0v1362h940v-373h-514v-110h441v-369h-441v-137h529v-373h-955zM252 1706q0 49 45 99t113 89l372 -356l-86 -117q-188 63 -334 144q-63 35 -86.5 66.5t-23.5 74.5z" />
<glyph unicode="&#xc9;" horiz-adv-x="1107" d="M94 0v1362h940v-373h-514v-110h441v-369h-441v-137h529v-373h-955zM328 1540l372 358q68 -39 113 -90t45 -100q0 -43 -23.5 -74.5t-86.5 -66.5q-154 -86 -334 -144z" />
<glyph unicode="&#xca;" horiz-adv-x="1107" d="M94 0v1362h940v-373h-514v-110h441v-369h-441v-137h529v-373h-955zM197 1530q102 123 202 225q88 90 153.5 90t152.5 -86q123 -123 208 -227l-118 -115l-242 174l-236 -174z" />
<glyph unicode="&#xcb;" horiz-adv-x="1107" d="M94 0v1362h940v-373h-514v-110h441v-369h-441v-137h529v-373h-955zM143 1608q0 70 49.5 118t129 48t129 -48.5t49.5 -118t-49.5 -116.5t-128.5 -47q-82 0 -130.5 46t-48.5 118zM618 1608q0 70 49.5 118t129.5 48t129 -48.5t49 -118t-49 -116.5t-129 -47q-82 0 -130.5 46 t-48.5 118z" />
<glyph unicode="&#xcc;" horiz-adv-x="634" d="M41 1706q0 49 45 99t113 89l372 -356l-86 -117q-190 63 -333 144q-63 35 -87 66.5t-24 74.5zM104 0v1362h426v-1362h-426z" />
<glyph unicode="&#xcd;" horiz-adv-x="634" d="M80 1540l373 358q68 -39 112.5 -90t44.5 -100q0 -43 -23.5 -74.5t-86.5 -66.5q-154 -86 -334 -144zM104 0v1362h426v-1362h-426z" />
<glyph unicode="&#xce;" horiz-adv-x="634" d="M-51 1530q102 123 203 225q88 90 153.5 90t151.5 -86q123 -123 209 -227l-119 -115l-242 174l-235 -174zM104 0v1362h426v-1362h-426z" />
<glyph unicode="&#xcf;" horiz-adv-x="634" d="M-109 1608q0 70 49.5 118t129.5 48t129 -48.5t49 -118t-49 -116.5t-129 -47q-82 0 -130.5 46t-48.5 118zM104 0v1362h426v-1362h-426zM367 1608q0 70 49 118t129 48t129 -48.5t49 -118t-49 -116.5t-129 -47q-82 0 -130 46t-48 118z" />
<glyph unicode="&#xd0;" horiz-adv-x="1359" d="M20 557v252h123v553h492q319 0 494.5 -157.5t175.5 -479.5q0 -190 -54.5 -334.5t-148.5 -227.5t-209 -123t-250 -40h-500v557h-123zM541 305h106q125 0 193.5 98.5t68.5 288.5q0 362 -284 363h-84v-246h200v-252h-200v-252z" />
<glyph unicode="&#xd1;" horiz-adv-x="1353" d="M94 0v1362h377l360 -594h7v594h422v-1362h-363l-375 608h-8v-608h-420zM352 1694q88 66 185 65q59 0 153 -27.5t144 -27.5q63 0 137 39l22 -230q-70 -41 -147 -40q-49 0 -154.5 24.5t-146.5 24.5q-82 0 -164 -45z" />
<glyph unicode="&#xd2;" horiz-adv-x="1368" d="M55 678q0 188 57.5 330.5t155 221.5t208 117.5t231.5 38.5q127 0 232 -38.5t191.5 -119.5t134.5 -221.5t48 -328.5q0 -340 -172 -521.5t-465 -181.5q-297 0 -459 179.5t-162 523.5zM434 1706q0 49 45 99t113 89l373 -356l-86 -117q-190 63 -334 144q-63 35 -87 66.5 t-24 74.5zM492 696q0 -373 198 -372q188 0 189 348q0 63 -8.5 119.5t-28 115t-61.5 93t-101 34.5q-98 0 -143 -96.5t-45 -241.5z" />
<glyph unicode="&#xd3;" horiz-adv-x="1368" d="M55 678q0 188 57.5 330.5t155 221.5t208 117.5t231.5 38.5q127 0 232 -38.5t191.5 -119.5t134.5 -221.5t48 -328.5q0 -340 -172 -521.5t-465 -181.5q-297 0 -459 179.5t-162 523.5zM434 1540l373 358q68 -39 113 -90t45 -100q0 -43 -23.5 -74.5t-87.5 -66.5 q-154 -86 -334 -144zM492 696q0 -373 198 -372q188 0 189 348q0 63 -8.5 119.5t-28 115t-61.5 93t-101 34.5q-98 0 -143 -96.5t-45 -241.5z" />
<glyph unicode="&#xd4;" horiz-adv-x="1368" d="M55 678q0 188 57.5 330.5t155 221.5t208 117.5t231.5 38.5q127 0 232 -38.5t191.5 -119.5t134.5 -221.5t48 -328.5q0 -340 -172 -521.5t-465 -181.5q-297 0 -459 179.5t-162 523.5zM322 1530q102 123 202 225q88 90 153.5 90t151.5 -86q123 -123 209 -227l-118 -115 l-242 174l-236 -174zM492 696q0 -373 198 -372q188 0 189 348q0 63 -8.5 119.5t-28 115t-61.5 93t-101 34.5q-98 0 -143 -96.5t-45 -241.5z" />
<glyph unicode="&#xd5;" horiz-adv-x="1368" d="M55 678q0 188 57.5 330.5t155 221.5t208 117.5t231.5 38.5q127 0 232 -38.5t191.5 -119.5t134.5 -221.5t48 -328.5q0 -340 -172 -521.5t-465 -181.5q-297 0 -459 179.5t-162 523.5zM356 1694q88 66 185 65q59 0 153 -27.5t144 -27.5q63 0 137 39l22 -230 q-70 -41 -147 -40q-49 0 -154.5 24.5t-146.5 24.5q-82 0 -164 -45zM492 696q0 -373 198 -372q188 0 189 348q0 63 -8.5 119.5t-28 115t-61.5 93t-101 34.5q-98 0 -143 -96.5t-45 -241.5z" />
<glyph unicode="&#xd6;" horiz-adv-x="1368" d="M55 678q0 188 57.5 330.5t155 221.5t208 117.5t231.5 38.5q127 0 232 -38.5t191.5 -119.5t134.5 -221.5t48 -328.5q0 -340 -172 -521.5t-465 -181.5q-297 0 -459 179.5t-162 523.5zM274 1608q0 70 49.5 118t129 48t129 -48.5t49.5 -118t-49.5 -116.5t-128.5 -47 q-82 0 -130.5 46t-48.5 118zM492 696q0 -373 198 -372q188 0 189 348q0 63 -8.5 119.5t-28 115t-61.5 93t-101 34.5q-98 0 -143 -96.5t-45 -241.5zM750 1608q0 70 49 118t129 48t129 -48.5t49 -118t-49 -116.5t-129 -47q-82 0 -130 46t-48 118z" />
<glyph unicode="&#xd7;" d="M119 825l235 236l199 -197l188 191l232 -234l-189 -190l193 -193l-236 -237l-194 192l-195 -194l-231 233l194 195z" />
<glyph unicode="&#xd8;" horiz-adv-x="1366" d="M55 678q0 188 57.5 330.5t155 221.5t208 117.5t231.5 38.5h34l70 197l328 -113l-68 -192q242 -174 242 -600q0 -340 -172 -521.5t-465 -181.5q-35 0 -51 2l-80 -229l-324 117l76 217q-242 174 -242 596zM492 696q0 -373 198 -372q188 0 189 348q0 63 -8.5 119.5t-28 115 t-61.5 93t-101 34.5q-98 0 -143 -96.5t-45 -241.5z" />
<glyph unicode="&#xd9;" horiz-adv-x="1288" d="M84 461v901h424v-875q0 -158 141 -157q59 0 95 38t36 109v885h424v-928q0 -211 -155.5 -335t-407.5 -124q-281 0 -419 118t-138 368zM395 1706q0 49 45 99t113 89l373 -356l-86 -117q-188 63 -334 144q-63 35 -87 66.5t-24 74.5z" />
<glyph unicode="&#xda;" horiz-adv-x="1288" d="M84 461v901h424v-875q0 -158 141 -157q59 0 95 38t36 109v885h424v-928q0 -211 -155.5 -335t-407.5 -124q-281 0 -419 118t-138 368zM395 1540l373 358q68 -39 113 -90t45 -100q0 -43 -23.5 -74.5t-87.5 -66.5q-154 -86 -334 -144z" />
<glyph unicode="&#xdb;" horiz-adv-x="1288" d="M84 461v901h424v-875q0 -158 141 -157q59 0 95 38t36 109v885h424v-928q0 -211 -155.5 -335t-407.5 -124q-281 0 -419 118t-138 368zM283 1530q102 123 202 225q88 90 154 90t152 -86q123 -123 208 -227l-118 -115l-242 174l-236 -174z" />
<glyph unicode="&#xdc;" horiz-adv-x="1288" d="M84 461v901h424v-875q0 -158 141 -157q59 0 95 38t36 109v885h424v-928q0 -211 -155.5 -335t-407.5 -124q-281 0 -419 118t-138 368zM225 1608q0 70 49.5 118t129 48t129 -48.5t49.5 -118t-49.5 -116.5t-129.5 -47q-82 0 -130 46t-48 118zM700 1608q0 70 49.5 118t129 48 t129 -48.5t49.5 -118t-49.5 -116.5t-128.5 -47q-82 0 -130.5 46t-48.5 118z" />
<glyph unicode="&#xdd;" horiz-adv-x="1280" d="M-20 1362h464l191 -444h8l215 444h442l-458 -836v-526h-426v524zM381 1540l373 358q68 -39 112.5 -90t44.5 -100q0 -43 -23.5 -74.5t-86.5 -66.5q-154 -86 -334 -144z" />
<glyph unicode="&#xde;" horiz-adv-x="1177" d="M94 0v1362h428v-199h96q252 0 394.5 -114.5t142.5 -327.5q0 -236 -158.5 -362t-421.5 -126h-53v-233h-428zM522 563h31q84 0 124 29t40 106q0 133 -117 133h-78v-268z" />
<glyph unicode="&#xdf;" horiz-adv-x="1294" d="M92 -430v1509q0 446 572 447q260 0 397 -92.5t137 -247.5q0 -78 -38 -148.5t-83 -112.5t-83 -91.5t-38 -88.5q0 -31 24 -57.5t59.5 -45.5t77.5 -48t78 -59.5t59.5 -84t23.5 -120.5q0 -170 -120 -266.5t-324 -96.5q-117 0 -265 35l78 299q100 -37 160 -37q61 0 61 47 q0 35 -46 66t-100 55.5t-100.5 88t-46.5 157.5q0 78 37 149.5t81 116.5t81 97.5t37 93.5t-25.5 62.5t-53 25.5t-71.5 4q-158 0 -157 -142v-1515h-412z" />
<glyph unicode="&#xe0;" horiz-adv-x="1118" d="M41 483q0 276 147.5 442.5t423.5 166.5q195 0 418 -88v-766l27 -238h-346l-19 86l-12 2q-82 -123 -238 -123q-401 0 -401 518zM322 1507q0 70 65.5 116t144.5 67l269 -441l-113 -94q-47 27 -137 93.5t-154 127.5q-75 76 -75 131zM449 518q0 -258 102 -258q31 0 51.5 21.5 t20.5 50.5v467q-25 8 -52 8q-63 0 -92.5 -83t-29.5 -206z" />
<glyph unicode="&#xe1;" horiz-adv-x="1118" d="M41 483q0 276 147.5 442.5t423.5 166.5q195 0 418 -88v-766l27 -238h-346l-19 86l-12 2q-82 -123 -238 -123q-401 0 -401 518zM393 1249l266 441q80 -20 145.5 -66.5t65.5 -116.5q0 -55 -75 -131q-63 -61 -153.5 -127.5t-137.5 -93.5zM449 518q0 -258 102 -258 q31 0 51.5 21.5t20.5 50.5v467q-25 8 -52 8q-63 0 -92.5 -83t-29.5 -206z" />
<glyph unicode="&#xe2;" horiz-adv-x="1118" d="M41 483q0 276 147.5 442.5t423.5 166.5q195 0 418 -88v-766l27 -238h-346l-19 86l-12 2q-82 -123 -238 -123q-401 0 -401 518zM205 1255q111 168 235 310q51 55 78 72.5t74 17.5q49 0 74.5 -16.5t76.5 -73.5q111 -125 242 -308l-127 -104l-266 219l-260 -219zM449 518 q0 -258 102 -258q31 0 51.5 21.5t20.5 50.5v467q-25 8 -52 8q-63 0 -92.5 -83t-29.5 -206z" />
<glyph unicode="&#xe3;" horiz-adv-x="1118" d="M41 483q0 276 147.5 442.5t423.5 166.5q195 0 418 -88v-766l27 -238h-346l-19 86l-12 2q-82 -123 -238 -123q-401 0 -401 518zM289 1466q90 68 184 68q59 0 153.5 -28.5t143.5 -28.5q66 0 137 41l21 -232q-70 -41 -148 -41q-49 0 -154.5 24.5t-146.5 24.5q-82 0 -164 -45 zM449 518q0 -258 102 -258q31 0 51.5 21.5t20.5 50.5v467q-25 8 -52 8q-63 0 -92.5 -83t-29.5 -206z" />
<glyph unicode="&#xe4;" horiz-adv-x="1118" d="M41 483q0 276 147.5 442.5t423.5 166.5q195 0 418 -88v-766l27 -238h-346l-19 86l-12 2q-82 -123 -238 -123q-401 0 -401 518zM199 1376q0 70 49 117t129 47t129 -47t49 -116.5t-49 -117t-129 -47.5q-82 0 -130 46t-48 118zM449 518q0 -258 102 -258q31 0 51.5 21.5 t20.5 50.5v467q-25 8 -52 8q-63 0 -92.5 -83t-29.5 -206zM655 1376q0 70 49.5 117t129 47t129 -47t49.5 -116.5t-49.5 -117t-128.5 -47.5q-82 0 -130.5 46t-48.5 118z" />
<glyph unicode="&#xe5;" horiz-adv-x="1118" d="M41 483q0 276 147.5 442.5t423.5 166.5q195 0 418 -88v-766l27 -238h-346l-19 86l-12 2q-82 -123 -238 -123q-401 0 -401 518zM377 1391q0 94 63.5 154.5t159.5 60.5q104 0 163.5 -58.5t59.5 -146.5q0 -98 -63.5 -160.5t-163.5 -62.5q-102 0 -160.5 60.5t-58.5 152.5z M449 518q0 -258 102 -258q31 0 51.5 21.5t20.5 50.5v467q-25 8 -52 8q-63 0 -92.5 -83t-29.5 -206zM535 1390.5q0 -71.5 65.5 -71.5t65.5 71.5t-65.5 71.5t-65.5 -71.5z" />
<glyph unicode="&#xe6;" horiz-adv-x="1542" d="M41 481q0 276 148.5 443.5t424.5 167.5q137 0 283 -52q109 51 244 52q176 0 278.5 -86t102.5 -261q0 -326 -506 -374q6 -45 50 -73t112 -28q121 0 249 84l103 -270q-152 -100 -359 -115q-29 -2 -55 -2q-256 0 -385 129q-131 -131 -303 -131q-387 0 -387 516zM449 514 q0 -254 102 -254q51 0 63 43q-20 84 -20 193q0 164 65 297q-57 14 -86 14q-66 0 -95 -84t-29 -209zM995 614q78 8 126 48t48 88q0 55 -53 55q-47 0 -83 -48.5t-38 -142.5z" />
<glyph unicode="&#xe7;" horiz-adv-x="952" d="M33 512q0 283 154.5 431.5t373.5 148.5q283 0 420 -226l-248 -213q-27 37 -44 57.5t-47 39t-60 18.5q-135 0 -136 -238q0 -119 44.5 -181t123.5 -62q82 0 201 78l141 -279q-150 -113 -372 -121l-19 -72q94 -10 152.5 -60t58.5 -126q0 -70 -28.5 -119t-76.5 -71.5 t-93.5 -30.5t-94.5 -8q-123 0 -217 37l45 159q74 -27 140 -26q100 0 100 53q0 68 -188 68l65 206q-186 33 -290.5 170.5t-104.5 366.5z" />
<glyph unicode="&#xe8;" horiz-adv-x="991" d="M41 496q0 115 35 219t100.5 189t172 136.5t239.5 51.5q176 0 278.5 -86t102.5 -261q0 -326 -506 -374q27 -100 162 -101q121 0 249 84l105 -270l-76 -43q-162 -74 -342 -74q-268 0 -394 140.5t-126 388.5zM254 1507q0 70 65.5 116t145.5 67l268 -441l-112 -94 q-47 27 -137.5 93.5t-153.5 127.5q-76 76 -76 131zM442 614q80 8 127 48t47 88q0 55 -53 55q-47 0 -82 -48.5t-39 -142.5z" />
<glyph unicode="&#xe9;" horiz-adv-x="991" d="M41 496q0 115 35 219t100.5 189t172 136.5t239.5 51.5q176 0 278.5 -86t102.5 -261q0 -326 -506 -374q27 -100 162 -101q121 0 249 84l105 -270l-76 -43q-162 -74 -342 -74q-268 0 -394 140.5t-126 388.5zM340 1249l266 441q80 -20 145.5 -66.5t65.5 -116.5 q0 -55 -76 -131q-63 -61 -153 -127.5t-137 -93.5zM442 614q80 8 127 48t47 88q0 55 -53 55q-47 0 -82 -48.5t-39 -142.5z" />
<glyph unicode="&#xea;" horiz-adv-x="991" d="M41 496q0 115 35 219t100.5 189t172 136.5t239.5 51.5q176 0 278.5 -86t102.5 -261q0 -326 -506 -374q27 -100 162 -101q121 0 249 84l105 -270l-76 -43q-162 -74 -342 -74q-268 0 -394 140.5t-126 388.5zM168 1255q111 168 235 310q51 55 78 72.5t74 17.5 q49 0 74.5 -16.5t77.5 -73.5q111 -125 241 -308l-127 -104l-266 219l-260 -219zM442 614q80 8 127 48t47 88q0 55 -53 55q-47 0 -82 -48.5t-39 -142.5z" />
<glyph unicode="&#xeb;" horiz-adv-x="991" d="M41 496q0 115 35 219t100.5 189t172 136.5t239.5 51.5q176 0 278.5 -86t102.5 -261q0 -326 -506 -374q27 -100 162 -101q121 0 249 84l105 -270l-76 -43q-162 -74 -342 -74q-268 0 -394 140.5t-126 388.5zM143 1376q0 70 49.5 117t129 47t129 -47t49.5 -116.5t-49.5 -117 t-128.5 -47.5q-82 0 -130.5 46t-48.5 118zM442 614q80 8 127 48t47 88q0 55 -53 55q-47 0 -82 -48.5t-39 -142.5zM600 1376q0 70 49 117t129 47t129 -47t49 -116.5t-49 -117t-129 -47.5q-82 0 -130 46t-48 118z" />
<glyph unicode="&#xec;" horiz-adv-x="579" d="M49 1507q0 70 65.5 116t145.5 67l268 -441l-112 -94q-47 27 -137.5 93.5t-153.5 127.5q-76 76 -76 131zM92 0v1059h416v-1059h-416z" />
<glyph unicode="&#xed;" horiz-adv-x="579" d="M53 1249l266 441q80 -20 145.5 -66.5t65.5 -116.5q0 -55 -75 -131q-63 -61 -153.5 -127.5t-137.5 -93.5zM92 0v1059h416v-1059h-416z" />
<glyph unicode="&#xee;" horiz-adv-x="579" d="M-100 1255q111 168 235 310q51 55 78 72.5t74 17.5q49 0 74.5 -16.5t76.5 -73.5q111 -125 242 -308l-127 -104l-266 219l-260 -219zM92 0v1059h416v-1059h-416z" />
<glyph unicode="&#xef;" horiz-adv-x="579" d="M-119 1376q0 70 49.5 117t129 47t129 -47t49.5 -116.5t-49.5 -117t-129.5 -47.5q-82 0 -130 46t-48 118zM92 0v1059h416v-1059h-416zM338 1376q0 70 49 117t129 47t129 -47t49 -116.5t-49 -117t-129 -47.5q-82 0 -130 46t-48 118z" />
<glyph unicode="&#xf0;" horiz-adv-x="1073" d="M41 434q0 217 109.5 346t285.5 129q125 0 207 -53l12 6q-59 262 -469 322l90 291q223 -23 386 -121l188 135l158 -225l-136 -93q160 -227 160 -575q0 -297 -123 -464t-374 -167q-240 0 -367 119t-127 350zM438 430q0 -174 97 -174q102 0 102 252v100q-49 20 -90 21 q-109 0 -109 -199z" />
<glyph unicode="&#xf1;" horiz-adv-x="1114" d="M63 1059h340l23 -96q98 129 287 129q154 0 240.5 -89.5t86.5 -275.5v-727h-413v664q0 61 -9.5 86.5t-39.5 25.5q-76 0 -76 -112v-664h-410v827zM248 1466q90 68 184 68q59 0 153.5 -28.5t143.5 -28.5q66 0 137 41l21 -232q-70 -41 -148 -41q-49 0 -154.5 24.5 t-146.5 24.5q-82 0 -164 -45z" />
<glyph unicode="&#xf2;" horiz-adv-x="1093" d="M41 516q0 154 48 270.5t127 180t167 94.5t180 31q61 0 117.5 -8.5t130.5 -41t126 -88t89 -159t37 -242.5q0 -274 -149.5 -430t-378.5 -156q-233 0 -363.5 138.5t-130.5 410.5zM303 1507q0 70 65.5 116t145.5 67l268 -441l-112 -94q-47 27 -137.5 93.5t-153.5 127.5 q-76 76 -76 131zM465 561q0 -147 16.5 -222t69.5 -75q47 0 66.5 58.5t19.5 201.5q0 150 -19.5 212.5t-68.5 62.5q-84 0 -84 -238z" />
<glyph unicode="&#xf3;" horiz-adv-x="1093" d="M41 516q0 154 48 270.5t127 180t167 94.5t180 31q61 0 117.5 -8.5t130.5 -41t126 -88t89 -159t37 -242.5q0 -274 -149.5 -430t-378.5 -156q-233 0 -363.5 138.5t-130.5 410.5zM373 1249l266 441q80 -20 145.5 -66.5t65.5 -116.5q0 -55 -76 -131q-63 -61 -153.5 -127.5 t-137.5 -93.5zM465 561q0 -147 16.5 -222t69.5 -75q47 0 66.5 58.5t19.5 201.5q0 150 -19.5 212.5t-68.5 62.5q-84 0 -84 -238z" />
<glyph unicode="&#xf4;" horiz-adv-x="1093" d="M41 516q0 154 48 270.5t127 180t167 94.5t180 31q61 0 117.5 -8.5t130.5 -41t126 -88t89 -159t37 -242.5q0 -274 -149.5 -430t-378.5 -156q-233 0 -363.5 138.5t-130.5 410.5zM184 1255q111 168 236 310q51 55 77.5 72.5t73.5 17.5q49 0 75 -16.5t77 -73.5 q111 -125 242 -308l-127 -104l-267 219l-260 -219zM465 561q0 -147 16.5 -222t69.5 -75q47 0 66.5 58.5t19.5 201.5q0 150 -19.5 212.5t-68.5 62.5q-84 0 -84 -238z" />
<glyph unicode="&#xf5;" horiz-adv-x="1093" d="M41 516q0 154 48 270.5t127 180t167 94.5t180 31q61 0 117.5 -8.5t130.5 -41t126 -88t89 -159t37 -242.5q0 -274 -149.5 -430t-378.5 -156q-233 0 -363.5 138.5t-130.5 410.5zM242 1466q90 68 184 68q59 0 153.5 -28.5t143.5 -28.5q66 0 137 41l21 -232q-70 -41 -148 -41 q-49 0 -154.5 24.5t-146.5 24.5q-82 0 -164 -45zM465 561q0 -147 16.5 -222t69.5 -75q47 0 66.5 58.5t19.5 201.5q0 150 -19.5 212.5t-68.5 62.5q-84 0 -84 -238z" />
<glyph unicode="&#xf6;" horiz-adv-x="1093" d="M41 516q0 154 48 270.5t127 180t167 94.5t180 31q61 0 117.5 -8.5t130.5 -41t126 -88t89 -159t37 -242.5q0 -274 -149.5 -430t-378.5 -156q-233 0 -363.5 138.5t-130.5 410.5zM150 1376q0 70 49 117t129 47t129 -47t49 -116.5t-49 -117t-129 -47.5q-82 0 -130 46t-48 118 zM465 561q0 -147 16.5 -222t69.5 -75q47 0 66.5 58.5t19.5 201.5q0 150 -19.5 212.5t-68.5 62.5q-84 0 -84 -238zM606 1376q0 70 49.5 117t129 47t129 -47t49.5 -116.5t-49.5 -117t-129.5 -47.5q-82 0 -130 46t-48 118z" />
<glyph unicode="&#xf7;" d="M133 463v328h830v-328h-830zM381 1055q0 72 44 125t124 53t125 -49t45 -127t-47 -130.5t-125 -52.5q-80 0 -123 50.5t-43 130.5zM381 217q0 74 44 127t124 53t125 -49t45 -129q0 -76 -47 -128t-125 -52q-80 0 -123 49t-43 129z" />
<glyph unicode="&#xf8;" horiz-adv-x="1093" d="M41 516q0 152 47 267.5t124 180t163 95.5t178 33l80 208l328 -112l-74 -191q176 -135 176 -444q0 -274 -149.5 -430t-378.5 -156h-17l-84 -217l-323 117l82 215q-152 141 -152 434zM465 561q0 -147 16.5 -222t69.5 -75q47 0 66.5 58.5t19.5 201.5q0 150 -19.5 212.5 t-68.5 62.5q-84 0 -84 -238z" />
<glyph unicode="&#xf9;" horiz-adv-x="1122" d="M84 354v705h414v-660q0 -61 10 -87.5t45 -26.5q31 0 49.5 27.5t18.5 70.5v676h413v-842l25 -217h-346l-15 84h-12q-88 -111 -246 -111q-356 0 -356 381zM328 1507q0 70 65.5 116t145.5 67l268 -441l-113 -94q-47 27 -137 93.5t-154 127.5q-75 76 -75 131z" />
<glyph unicode="&#xfa;" horiz-adv-x="1122" d="M84 354v705h414v-660q0 -61 10 -87.5t45 -26.5q31 0 49.5 27.5t18.5 70.5v676h413v-842l25 -217h-346l-15 84h-12q-88 -111 -246 -111q-356 0 -356 381zM332 1249l266 441q80 -20 145.5 -66.5t65.5 -116.5q0 -55 -76 -131q-63 -61 -153.5 -127.5t-137.5 -93.5z" />
<glyph unicode="&#xfb;" horiz-adv-x="1122" d="M84 354v705h414v-660q0 -61 10 -87.5t45 -26.5q31 0 49.5 27.5t18.5 70.5v676h413v-842l25 -217h-346l-15 84h-12q-88 -111 -246 -111q-356 0 -356 381zM178 1255q111 168 236 310q51 55 77.5 72.5t73.5 17.5q49 0 75 -16.5t77 -73.5q111 -125 241 -308l-127 -104 l-266 219l-260 -219z" />
<glyph unicode="&#xfc;" horiz-adv-x="1122" d="M84 354v705h414v-660q0 -61 10 -87.5t45 -26.5q31 0 49.5 27.5t18.5 70.5v676h413v-842l25 -217h-346l-15 84h-12q-88 -111 -246 -111q-356 0 -356 381zM160 1376q0 70 49 117t129 47t129 -47t49 -116.5t-49 -117t-129 -47.5q-82 0 -130 46t-48 118zM616 1376 q0 70 49.5 117t129 47t129 -47t49.5 -116.5t-49.5 -117t-128.5 -47.5q-82 0 -130.5 46t-48.5 118z" />
<glyph unicode="&#xfd;" horiz-adv-x="1107" d="M84 418v641h414v-633q0 -57 10 -82t47 -25q25 0 45.5 28t20.5 73v639h415v-756q0 -229 -2 -287q-12 -274 -144 -417.5t-382 -143.5q-180 0 -276.5 78t-96.5 215q0 199 193 346q-129 29 -186.5 108t-57.5 216zM356 1249l267 441q80 -20 145.5 -66.5t65.5 -116.5 q0 -55 -76 -131q-63 -61 -153.5 -127.5t-137.5 -93.5zM489 -172q0 -80 68 -80q41 0 57.5 29.5t16.5 97.5v205q-53 -41 -97.5 -107.5t-44.5 -144.5z" />
<glyph unicode="&#xfe;" d="M74 -430v1853h413v-356q94 25 175 25q197 0 304 -145.5t107 -411.5q0 -272 -127 -420t-350 -148q-70 0 -109 8v-405h-413zM487 276q33 -12 58 -12q113 0 112 258q0 133 -26.5 199.5t-98.5 66.5q-25 0 -45 -4v-508z" />
<glyph unicode="&#xff;" horiz-adv-x="1107" d="M84 418v641h414v-633q0 -57 10 -82t47 -25q25 0 45.5 28t20.5 73v639h415v-756q0 -229 -2 -287q-12 -274 -144 -417.5t-382 -143.5q-180 0 -276.5 78t-96.5 215q0 199 193 346q-129 29 -186.5 108t-57.5 216zM154 1376q0 70 49 117t129 47t129 -47t49 -116.5t-49 -117 t-129 -47.5q-82 0 -130 46t-48 118zM489 -172q0 -80 68 -80q41 0 57.5 29.5t16.5 97.5v205q-53 -41 -97.5 -107.5t-44.5 -144.5zM610 1376q0 70 49.5 117t129 47t129 -47t49.5 -116.5t-49.5 -117t-129.5 -47.5q-82 0 -130 46t-48 118z" />
<glyph unicode="&#x152;" horiz-adv-x="1878" d="M55 678q0 152 39 274.5t101.5 201.5t148.5 132t175 75.5t183 22.5q109 0 216 -22h884v-373h-512v-110h439v-369h-439v-137h527v-373h-893q-141 -33 -260 -33q-293 0 -451 182.5t-158 528.5zM492 696q0 -381 219 -381q96 0 151 35v641q-72 41 -160 41q-210 0 -210 -336z " />
<glyph unicode="&#x153;" horiz-adv-x="1576" d="M41 516q0 156 46 272.5t122 180t158 93.5t168 30q211 0 317 -136q147 135 324 136q174 0 276 -86t102 -261q0 -326 -505 -374q6 -45 51 -73t110 -28q123 0 252 84l103 -270l-76 -43q-162 -74 -342 -74q-197 0 -332 117q-121 -117 -305 -117q-219 0 -344 138.5t-125 410.5 zM465 561q0 -147 16.5 -222t69.5 -75q47 0 66.5 58.5t19.5 201.5q0 150 -19.5 212.5t-68.5 62.5q-84 0 -84 -238zM1028 614q80 8 127 48t47 88q0 55 -51 55q-47 0 -83 -48.5t-40 -142.5z" />
<glyph unicode="&#x178;" horiz-adv-x="1280" d="M-20 1362h464l191 -444h8l215 444h442l-458 -836v-526h-426v524zM211 1608q0 70 49 118t129 48t129 -48.5t49 -118t-49 -116.5t-129 -47q-82 0 -130 46t-48 118zM686 1608q0 70 49 118t129 48t129 -48.5t49 -118t-49 -116.5t-129 -47q-82 0 -130 46t-48 118z" />
<glyph unicode="&#x2c6;" horiz-adv-x="1024" d="M121 1255q111 168 235 310q51 55 78 72.5t74 17.5q49 0 74.5 -16.5t76.5 -73.5q111 -125 242 -308l-127 -104l-266 219l-260 -219z" />
<glyph unicode="&#x2dc;" horiz-adv-x="1024" d="M188 1466q90 68 185 68q59 0 153.5 -28.5t143.5 -28.5q66 0 137 41l20 -232q-70 -41 -147 -41q-49 0 -154.5 24.5t-146.5 24.5q-82 0 -164 -45z" />
<glyph unicode="&#x2013;" horiz-adv-x="1024" d="M0 424v254h1024v-254h-1024z" />
<glyph unicode="&#x2014;" horiz-adv-x="2048" d="M0 424v254h2048v-254h-2048z" />
<glyph unicode="&#x2018;" horiz-adv-x="542" d="M72 1051q0 96 73.5 233t157.5 240l205 -76l-105 -535q-61 -10 -120 -10q-86 0 -148.5 34t-62.5 114z" />
<glyph unicode="&#x2019;" horiz-adv-x="546" d="M72 948l80 543q49 12 139 12h11q194 0 194 -143q0 -90 -75 -238.5t-140 -238.5z" />
<glyph unicode="&#x201a;" horiz-adv-x="489" d="M23 -295q33 326 71 459q25 102 137 102q63 0 130 -40t106 -81l-234 -507z" />
<glyph unicode="&#x201c;" horiz-adv-x="983" d="M72 1051q0 96 73.5 233t157.5 240l205 -76l-105 -535q-61 -10 -120 -10q-86 0 -148.5 34t-62.5 114zM512 1051q0 96 73.5 233t157.5 240l205 -76l-104 -535q-61 -10 -121 -10q-86 0 -148.5 34t-62.5 114z" />
<glyph unicode="&#x201d;" horiz-adv-x="987" d="M72 948l80 543q49 12 139 12h11q194 0 194 -143q0 -90 -75 -238.5t-140 -238.5zM512 948l80 543q49 12 139 12h11q194 0 194 -143q0 -90 -75 -238.5t-140 -238.5z" />
<glyph unicode="&#x201e;" horiz-adv-x="929" d="M23 -295q33 326 71 459q25 102 137 102q63 0 130 -40t106 -81l-234 -507zM463 -295q33 326 72 459q25 102 137 102q63 0 129.5 -40t105.5 -81l-233 -507z" />
<glyph unicode="&#x2022;" horiz-adv-x="1024" d="M229 649q0 133 80 217t203 84t203 -84t80 -217t-80 -216t-203 -83t-203 82t-80 217z" />
<glyph unicode="&#x2026;" horiz-adv-x="1744" d="M102 143q0 78 49.5 128.5t137.5 50.5q94 0 143 -47.5t49 -129.5q0 -80 -48 -131t-138 -51q-94 0 -143.5 50t-49.5 130zM688 143q0 78 49 128.5t137 50.5q94 0 143.5 -47.5t49.5 -129.5q0 -80 -48 -131t-138 -51q-94 0 -143.5 50t-49.5 130zM1264 143q0 78 49 128.5 t137 50.5q94 0 143 -47.5t49 -129.5q0 -80 -48 -131t-138 -51q-94 0 -143 50t-49 130z" />
<glyph unicode="&#x2039;" horiz-adv-x="741" d="M90 549q0 63 74 133q186 174 366 305l152 -147l-209 -305l195 -320l-146 -135q-104 72 -237 192.5t-176 200.5q-19 35 -19 76z" />
<glyph unicode="&#x203a;" horiz-adv-x="741" d="M59 840l152 147q180 -131 367 -305q74 -70 73 -133q0 -41 -18 -76q-43 -80 -176 -200.5t-238 -192.5l-145 135l194 320z" />
<glyph unicode="&#x20ac;" d="M51 512v301h180q-80 76 -79 178q0 164 120.5 259.5t345.5 95.5q117 0 243 -51.5t222 -157.5l-202 -228q-78 61 -129.5 87t-118.5 26q-121 0 -121 -102q0 -106 154 -107h249v-301h-243q-164 0 -164 -117q0 -111 149 -110q131 0 289 106l148 -266q-217 -160 -496 -160 q-236 0 -346.5 91t-110.5 249q0 117 82 207h-172z" />
<glyph unicode="&#x2122;" horiz-adv-x="1454" d="M43 1157v205h586v-205h-176v-483h-242v483h-168zM659 674l37 688h242l100 -350h6l101 350h239l33 -688h-215l-8 289h-8l-62 -224h-168l-67 224l-6 2l-11 -291h-213z" />
<glyph unicode="&#xe000;" horiz-adv-x="1060" d="M0 1060h1060v-1060h-1060v1060z" />
<glyph unicode="&#xfb01;" horiz-adv-x="1138" d="M92 -430v1526q0 70 7 124t32 114.5t68 100.5t119.5 65.5t181.5 25.5q111 0 228.5 -34t193.5 -75l-88 -260q-49 29 -122 49.5t-110 20.5q-98 0 -98 -84v-84h561v-1059h-416v737h-145v-1167h-412z" />
<glyph unicode="&#xfb02;" horiz-adv-x="1323" d="M92 -430v1526q0 430 434 430q281 0 549 -94v-1037q0 -104 70 -104q47 0 115 31l88 -271q-115 -84 -318 -84q-100 0 -171 25.5t-108.5 62.5t-58 97.5t-25.5 110.5t-5 124v350h-158v-1167h-412zM504 1059h158v151q-49 16 -87 17q-72 0 -71 -84v-84z" />
<glyph unicode="&#xfb03;" horiz-adv-x="1708" d="M92 -430v1526q0 72 6 125t31 113.5t66 99.5t117.5 65.5t181.5 26.5q145 0 299 -74q96 74 276 74q111 0 228.5 -34t193.5 -75l-88 -260q-49 29 -122 49.5t-110 20.5q-98 0 -98 -84v-84h561v-1059h-415v737h-146v-1167h-411v1167h-158v-1167h-412zM504 1059h158v37 q0 18 1 55t1 55q-53 20 -89 21q-72 0 -71 -84v-84z" />
<glyph unicode="&#xfb04;" horiz-adv-x="1898" d="M92 -430v1526q0 72 6 125t31 113.5t66 99.5t117.5 65.5t181.5 26.5q145 0 299 -74q117 74 307 74q242 0 549 -94v-1037q0 -104 71 -104q41 0 113 33l88 -273q-115 -84 -317 -84q-100 0 -171 25.5t-109 61.5t-58.5 96.5t-25.5 110.5t-5 124v352h-156v-1167h-413v1167h-162 v-1167h-412zM504 1059h162v37q0 74 4 110q-59 20 -95 21q-43 0 -57 -25.5t-14 -105.5v-37zM1079 1059h156v151q-49 16 -86 17q-70 0 -70 -84v-84z" />
</font>
</defs>
</svg>
