<?xml version="1.0" standalone="no"?>
<!DOCTYPE svg PUBLIC "-//W3C//DTD SVG 1.1//EN" "http://www.w3.org/Graphics/SVG/1.1/DTD/svg11.dtd" >
<svg xmlns="http://www.w3.org/2000/svg">
<metadata>
This is a custom SVG webfont generated by Font Squirrel.
Copyright   : Copyright c 2008 by TypeTogether All rights reserved
Designer    : Veronika Burian Jos Scaglione
Foundry     : TypeTogether
Foundry URL : wwwtypetogethercom
</metadata>
<defs>
<font id="BreeOblique" horiz-adv-x="1095" >
<font-face units-per-em="2048" ascent="1475" descent="-573" />
<missing-glyph horiz-adv-x="421" />
<glyph unicode=" "  horiz-adv-x="421" />
<glyph unicode="&#x09;" horiz-adv-x="421" />
<glyph unicode="&#xa0;" horiz-adv-x="421" />
<glyph unicode="!" horiz-adv-x="542" d="M147 82q0 63 49.5 109.5t114.5 46.5q59 0 91 -31t32 -82q0 -63 -47 -110.5t-117 -47.5q-59 0 -91 32t-32 83zM268 369l84 716l43 242q18 96 131 96q99 0 99 -74q0 -12 -2 -26l-43 -238l-166 -716h-146z" />
<glyph unicode="&#x22;" horiz-adv-x="714" d="M293 891l61 471h191l-103 -471h-149zM586 891l61 471h193l-103 -471h-151z" />
<glyph unicode="#" horiz-adv-x="1093" d="M94 322l25 135h217l86 319h-207l23 135h219l88 328h149l-88 -328h225l89 328h149l-88 -328h207l-25 -135h-217l-86 -319h207l-23 -135h-219l-84 -322h-149l84 322h-225l-84 -322h-150l84 322h-207zM485 457h226l86 319h-226z" />
<glyph unicode="$" d="M139 158l113 182q121 -88 250 -109l65 377q-4 0 -8 4q-63 27 -103 49.5t-86 60.5t-68.5 92t-22.5 124q0 176 112.5 281.5t304.5 119.5l35 191h154l-35 -199q190 -37 307 -172l-147 -147q-111 104 -195 123l-63 -359l12 -4q66 -29 105.5 -51.5t87 -61t71 -94t23.5 -127.5 q0 -174 -116 -284.5t-317 -126.5l-43 -248h-153l43 252q-102 12 -191.5 50t-134.5 77zM526 985q0 -86 84 -139l52 289q-136 -31 -136 -150zM655 238q143 35 144 172q0 82 -88 135z" />
<glyph unicode="%" horiz-adv-x="1640" d="M205 897q0 209 111.5 329t285.5 120q125 0 196.5 -76t71.5 -219q0 -205 -106.5 -329t-288.5 -124q-131 0 -200.5 77t-69.5 222zM385 883q0 -154 113 -154q80 0 135 79t57 247q0 160 -112 159q-82 0 -137.5 -84.5t-55.5 -246.5zM449 55l825 1284l153 -71l-829 -1286z M1010 260q0 213 108.5 336t280.5 123q127 0 201.5 -74t74.5 -217q0 -209 -104.5 -332t-282.5 -123q-137 0 -207.5 74t-70.5 213zM1188 254q0 -154 108 -154q80 0 137.5 79t59.5 247q0 160 -109 160q-82 0 -139 -85t-57 -247z" />
<glyph unicode="&#x26;" horiz-adv-x="1644" d="M207 459q0 272 168 470.5t452 198.5q131 0 216 -60t85 -161q0 -137 -124 -223q305 123 473 563l215 -67q-199 -471 -607 -623q-233 -90 -634 -96q-1 -13 -1 -26q0 -128 76 -194q84 -73 224 -73q166 0 298 96t203 303h379l-33 -186h-200q-207 -406 -680 -406 q-268 0 -389 138.5t-121 345.5zM475 629q410 20 410 223q0 35 -24.5 59.5t-76.5 24.5q-92 0 -179 -74.5t-130 -232.5z" />
<glyph unicode="'" horiz-adv-x="421" d="M293 891l61 471h191l-103 -471h-149z" />
<glyph unicode="(" horiz-adv-x="655" d="M215 336q0 547 451 1157l190 -104q-207 -303 -303 -543t-96 -504q0 -313 100 -621l-209 -86q-133 326 -133 701z" />
<glyph unicode=")" horiz-adv-x="655" d="M-2 -254q211 315 304 542.5t93 497.5q0 297 -104 615l215 80q129 -324 129 -705q0 -299 -112.5 -574.5t-342.5 -570.5z" />
<glyph unicode="*" horiz-adv-x="843" d="M270 1251q0 41 28 68t64 27q68 0 124.5 -52.5t74.5 -115.5q-59 -27 -139 -27q-57 0 -104.5 23.5t-47.5 76.5zM309 924q0 78 92.5 128t176.5 56q-6 -57 -33 -115.5t-56 -89.5q-45 -51 -108 -51q-35 0 -53.5 21.5t-18.5 50.5zM584 1399q0 63 29.5 108t80.5 45q74 0 74 -84 q0 -143 -129 -233q-55 62 -55 164zM655 1002q-2 25 -2 51.5t2 54.5q66 -8 136.5 -55t70.5 -111q0 -41 -24.5 -65.5t-65.5 -24.5q-55 0 -84 50t-33 100zM696 1178q35 68 103.5 118t138.5 50q37 0 57.5 -21.5t20.5 -54.5q0 -61 -56.5 -90t-128.5 -29q-88 0 -135 27z" />
<glyph unicode="+" d="M223 545l35 200h317l58 332h207l-58 -332h316l-35 -200h-315l-58 -326h-209l60 326h-318z" />
<glyph unicode="," horiz-adv-x="473" d="M8 -274q76 266 133 403q47 109 125 109q47 0 91 -29t67 -57l-295 -469z" />
<glyph unicode="-" horiz-adv-x="659" d="M145 496l33 188h537l-33 -188h-537z" />
<glyph unicode="." horiz-adv-x="448" d="M98 84q0 70 48.5 117t119.5 47q59 0 91 -31t32 -82q0 -68 -46 -117t-120 -49q-61 0 -93 31t-32 84z" />
<glyph unicode="/" horiz-adv-x="876" d="M-45 -143l956 1669l193 -99l-961 -1673z" />
<glyph unicode="0" d="M162 420q0 133 22 268q59 338 218 498t391 160q176 0 273 -118t97 -341q0 -141 -18 -248q-61 -352 -212 -505.5t-394 -153.5q-377 0 -377 440zM408 422q0 -246 170 -246q115 0 195.5 100.5t129.5 370.5q16 94 17 246q0 252 -168 252q-117 0 -197 -107.5t-127 -382.5 q-20 -112 -20 -233z" />
<glyph unicode="1" horiz-adv-x="929" d="M168 0l35 188h241l152 867l-295 -142l-61 158l446 248h217l-51 -193l-164 -938h234l-35 -188h-719z" />
<glyph unicode="2" horiz-adv-x="1050" d="M72 0l28 158l537 506q106 100 153.5 170.5t47.5 152.5q0 66 -40 102.5t-102 36.5q-127 0 -313 -143l-109 162q236 201 488 201q160 0 250 -85t90 -221q0 -125 -58.5 -233.5t-185.5 -224.5l-420 -383h580l-37 -199h-909z" />
<glyph unicode="3" horiz-adv-x="1054" d="M90 84l100 186q61 -39 150.5 -64.5t169.5 -25.5q111 0 181.5 57.5t70.5 159.5q0 106 -82 207q-86 -35 -242 -67l-37 180q225 53 336 116.5t111 180.5q0 57 -38 89t-101 32q-141 0 -347 -142l-94 154q92 78 230.5 138.5t279.5 60.5q162 0 244 -79t82 -196 q0 -111 -52.5 -192.5t-170.5 -153.5q129 -156 129 -315q0 -184 -127 -309.5t-379 -125.5q-121 0 -234.5 33t-179.5 76z" />
<glyph unicode="4" horiz-adv-x="1097" d="M137 317l29 170l559 863l184 -97l-481 -743h299l27 141l123 242h153l-69 -383h184l-33 -195h-184l-56 -315h-247l57 317h-545z" />
<glyph unicode="5" horiz-adv-x="1038" d="M63 90l107 189q160 -98 311 -99q131 0 195.5 63.5t64.5 162.5q0 49 -19.5 86.5t-61.5 60t-78.5 36t-104 20.5t-104.5 8l-109 4l211 698h676l-37 -203h-481l-101 -328q207 -12 336 -99t129 -271.5t-126 -312.5t-398 -128q-117 0 -237 36t-173 77z" />
<glyph unicode="6" d="M190 397q0 119 17 209q121 674 813 768l18 -188q-217 -37 -360 -148.5t-197 -283.5q160 86 312 86q139 0 214.5 -87t75.5 -221q0 -78 -6 -114q-31 -209 -166 -325t-352 -116q-188 0 -278.5 115t-90.5 305zM430 391q0 -225 162 -225q94 0 159.5 62.5t86.5 197.5q6 37 6 66 q0 174 -148 174q-53 0 -130 -25t-117 -55q-19 -80 -19 -195z" />
<glyph unicode="7" horiz-adv-x="958" d="M227 0l21 115q109 614 557 1001h-561l37 203h880l-31 -170q-510 -373 -628 -1051l-17 -98h-258z" />
<glyph unicode="8" d="M158 276q0 78 28.5 147t80.5 121t98.5 86t107.5 68q-154 111 -154 265q0 164 127 273.5t336 109.5q176 0 261 -78t85 -191q0 -205 -254 -364q186 -125 187 -303q0 -182 -131 -307.5t-387 -125.5q-199 0 -292 88t-93 211zM395 313q0 -68 43 -111.5t133 -43.5 q104 0 167 62.5t63 154.5q0 129 -172 225q-234 -131 -234 -287zM559 999q0 -115 150 -198q195 119 194 250q0 57 -40 91t-105 34q-90 0 -144.5 -50.5t-54.5 -126.5z" />
<glyph unicode="9" d="M233 813q0 229 139.5 381t379.5 152q197 0 289 -120t92 -325q0 -125 -25 -242.5t-85 -236.5t-151.5 -211t-237 -159.5t-327.5 -88.5l-20 184q215 35 359.5 141.5t193.5 278.5q-123 -88 -287 -88q-154 0 -237 89t-83 245zM479 831q0 -84 41 -132t121 -48q57 0 123.5 24.5 t114.5 63.5q14 84 14 176q0 240 -168 240q-104 0 -175 -85t-71 -239z" />
<glyph unicode=":" horiz-adv-x="448" d="M98 84q0 70 48.5 117t119.5 47q59 0 91 -31t32 -82q0 -68 -46 -117t-120 -49q-61 0 -93 31t-32 84zM236 856q0 68 47 116t118 48q59 0 92 -31t33 -82q0 -68 -47 -117t-121 -49q-59 0 -90.5 31t-31.5 84z" />
<glyph unicode=";" horiz-adv-x="473" d="M6 -274q80 270 135 403q43 109 123 109q90 0 160 -86l-295 -469zM272 856q0 68 47.5 116t118.5 48q59 0 92 -31t33 -82q0 -68 -47 -117t-121 -49q-59 0 -91 31t-32 84z" />
<glyph unicode="&#x3c;" d="M242 575l28 158l801 365l64 -185l-617 -262l516 -268l-110 -178z" />
<glyph unicode="=" d="M180 334l37 196h830l-37 -196h-830zM252 725l35 197h829l-35 -197h-829z" />
<glyph unicode="&#x3e;" d="M197 399l612 271l-508 262l105 168l684 -365l-29 -160l-795 -360z" />
<glyph unicode="?" horiz-adv-x="784" d="M164 82q0 63 49 109.5t115 46.5q59 0 91 -31t32 -82q0 -63 -47.5 -110.5t-116.5 -47.5q-59 0 -91 32t-32 83zM252 369q6 131 22 215q20 121 61.5 187.5t141.5 129.5q121 76 152 115q39 45 39 104q0 111 -113 111q-84 0 -244 -55l-8 188q174 59 303 59q150 0 224.5 -73.5 t74.5 -188.5q0 -133 -64.5 -217t-230.5 -188q-66 -41 -93.5 -73t-37.5 -89l-41 -225h-186z" />
<glyph unicode="@" horiz-adv-x="1951" d="M197 283q0 328 142 570.5t376.5 362t527.5 119.5q311 0 501.5 -164.5t190.5 -451.5q0 -346 -174 -532.5t-458 -186.5h-117l4 113q-2 0 -6 2q-98 -121 -262 -121q-143 0 -208 85t-65 224q0 268 145.5 433t397.5 165q141 0 293 -59l-119 -697q170 12 276.5 144.5 t106.5 408.5q0 217 -130 344t-390 127q-393 0 -617.5 -248.5t-224.5 -615.5q0 -250 130 -397.5t386 -147.5q180 0 334 64l25 -150q-174 -70 -394 -69q-141 0 -254.5 35.5t-190.5 99t-128 149.5t-74.5 184.5t-23.5 209.5zM852 332q0 -182 141 -182q74 0 128.5 41.5 t72.5 123.5l74 420q-47 18 -117 19q-145 0 -222 -129t-77 -293z" />
<glyph unicode="A" horiz-adv-x="1280" d="M25 0l698 1362h295l237 -1362h-245l-58 360h-479l-184 -360h-264zM549 549h379l-80 584h-10z" />
<glyph unicode="B" horiz-adv-x="1187" d="M143 0l240 1362h461q391 0 391 -279q0 -229 -248 -348q209 -57 209 -268q0 -219 -157.5 -343t-446.5 -124h-449zM428 193h195q305 0 305 256q0 84 -57.5 129t-163.5 45h-205zM535 805h153q143 0 214 62.5t71 164.5q0 80 -53.5 111t-151.5 31h-168z" />
<glyph unicode="C" horiz-adv-x="1208" d="M193 518q0 233 63 407.5t172 271.5t232.5 143t265.5 46q303 0 442 -262l-190 -118q-102 170 -273 170q-201 0 -325.5 -170t-124.5 -453q0 -371 290 -371q160 0 345 144l106 -164q-233 -186 -502 -187q-238 0 -369.5 140.5t-131.5 402.5z" />
<glyph unicode="D" horiz-adv-x="1318" d="M143 0l240 1362h444q258 0 400.5 -133t142.5 -385q0 -219 -61.5 -385t-171 -264.5t-244.5 -146.5t-295 -48h-455zM428 197h205q219 0 349 167.5t130 452.5q0 346 -330 346h-184z" />
<glyph unicode="E" horiz-adv-x="1042" d="M143 0l240 1362h821l-37 -217h-573l-59 -342h491l-39 -215h-491l-64 -371h586l-39 -217h-836z" />
<glyph unicode="F" horiz-adv-x="1058" d="M143 0l240 1362h872l-36 -217h-625l-62 -350h519l-39 -217h-518l-101 -578h-250z" />
<glyph unicode="G" horiz-adv-x="1282" d="M193 520q0 184 41.5 334t111.5 248t165 163.5t195.5 93t211.5 27.5q317 0 450 -262l-194 -116q-104 168 -277 168q-197 0 -320.5 -173.5t-123.5 -463.5q0 -360 286 -361q143 0 234 51l55 295h-201l29 189h442l-108 -607q-221 -131 -500 -131q-238 0 -367.5 137.5 t-129.5 407.5z" />
<glyph unicode="H" horiz-adv-x="1368" d="M143 0l240 1362h250l-96 -557h579l96 557h252l-239 -1362h-252l104 588h-579l-105 -588h-250z" />
<glyph unicode="I" horiz-adv-x="544" d="M147 0l240 1362h250l-240 -1362h-250z" />
<glyph unicode="J" horiz-adv-x="880" d="M33 86l106 180q104 -80 221 -80q164 0 197 185l174 991h250l-154 -873q-14 -94 -47 -215q-43 -160 -136 -229.5t-267 -69.5q-209 0 -344 111z" />
<glyph unicode="K" horiz-adv-x="1187" d="M143 0l240 1362h248l-121 -664h6l592 664h276l-485 -553l281 -809h-275l-205 610l-249 -268l-60 -342h-248z" />
<glyph unicode="L" horiz-adv-x="1024" d="M145 0l240 1362h250l-201 -1145h578l-39 -217h-828z" />
<glyph unicode="M" horiz-adv-x="1654" d="M129 0l317 1362h273l182 -893h6l498 893h287l-166 -1362h-238l115 938h-6l-453 -784h-188l-170 776h-4l-215 -930h-238z" />
<glyph unicode="N" horiz-adv-x="1363" d="M143 0l240 1362h252l409 -946h3l165 946h248l-239 -1362h-240l-418 961h-4l-168 -961h-248z" />
<glyph unicode="O" horiz-adv-x="1359" d="M190 492q0 127 19 225q27 156 85 275.5t129 192t161 120t173 64.5t171 17q213 0 345 -133t132 -385q0 -102 -16 -206q-53 -350 -243 -518.5t-472 -168.5q-229 0 -356.5 135.5t-127.5 381.5zM451 516q0 -334 268 -334q172 0 272.5 136.5t136.5 345.5q14 90 15 165 q0 150 -58.5 248.5t-193.5 98.5q-172 0 -279.5 -135.5t-142.5 -338.5q-18 -106 -18 -186z" />
<glyph unicode="P" horiz-adv-x="1163" d="M143 0l240 1362h461q203 0 315.5 -91t112.5 -261q0 -254 -167 -393.5t-448 -139.5h-180l-84 -477h-250zM512 676h147q350 0 351 303q0 113 -68 148.5t-199 35.5h-145z" />
<glyph unicode="Q" horiz-adv-x="1349" d="M158 100q0 150 93 231t271 81q96 0 199.5 -33t179.5 -86q88 106 143.5 252.5t55.5 292.5q0 342 -285 342q-160 0 -243 -82t-83 -197q0 -94 42 -145t149 -84l-51 -166q-164 18 -276.5 112.5t-112.5 262.5q0 225 165.5 365t448.5 140q233 0 370.5 -130t137.5 -386 q0 -365 -277 -698q125 -137 232.5 -207.5t269.5 -97.5l-84 -191q-319 43 -573 340q-211 -174 -461 -174q-162 0 -236.5 77t-74.5 181zM389 123q0 -98 121 -98q125 0 260 118q-131 88 -246 88q-59 0 -97 -26.5t-38 -81.5z" />
<glyph unicode="R" horiz-adv-x="1218" d="M143 0l240 1362h457q434 0 434 -320q0 -172 -90 -274t-223 -143q39 -16 58 -46t38 -92l137 -487h-268l-115 436q-16 55 -42 81t-77 26h-203l-96 -543h-250zM520 725h205q131 0 210 74.5t79 206.5q0 94 -64.5 125.5t-206.5 31.5h-145z" />
<glyph unicode="S" horiz-adv-x="1101" d="M92 123l121 194q66 -47 166 -88t194 -41q106 0 180 45.5t74 153.5q0 27 -7 48.5t-23.5 40t-30.5 31.5t-45 28.5t-47 22.5l-56 24l-53 22q-68 29 -110.5 52.5t-93 65.5t-75 101.5t-24.5 137.5q0 201 137.5 313t368.5 112q143 0 266 -58t195 -140l-158 -160 q-154 147 -319 148q-227 0 -228 -172q0 -37 16.5 -68t33 -49.5t61.5 -43t63 -32.5l78 -35q72 -31 115 -54.5t96 -66.5t80 -102t27 -135q0 -203 -142.5 -324t-386.5 -121q-150 0 -281 48.5t-192 101.5z" />
<glyph unicode="T" horiz-adv-x="1101" d="M238 1145l36 217h1033l-37 -217h-398l-200 -1145h-250l203 1145h-387z" />
<glyph unicode="U" horiz-adv-x="1288" d="M201 322q0 66 10 118l162 922h248l-160 -918q-8 -53 -8 -73q0 -100 58 -143.5t171 -43.5q258 0 301 250l164 928h248l-170 -961q-76 -428 -561 -428q-463 1 -463 349z" />
<glyph unicode="V" horiz-adv-x="1212" d="M260 1362h242l145 -1071h4l520 1071h261l-695 -1362h-262z" />
<glyph unicode="W" horiz-adv-x="1669" d="M279 1362h245l23 -1034h2l383 925h260l53 -907h4l371 1016h250l-533 -1362h-278l-43 686l-21 199l-372 -885h-285z" />
<glyph unicode="X" horiz-adv-x="1249" d="M-6 0l606 725l-309 637h284l207 -463l373 463h293l-547 -651l354 -711h-280l-254 518l-424 -518h-303z" />
<glyph unicode="Y" horiz-adv-x="1144" d="M242 1362h262l192 -602h2l408 602h276l-596 -842l-92 -520h-250l93 520z" />
<glyph unicode="Z" horiz-adv-x="1034" d="M55 0l31 170l791 997h-603l33 195h897l-28 -166l-795 -1001h643l-37 -195h-932z" />
<glyph unicode="[" horiz-adv-x="614" d="M104 -340l318 1802h432l-31 -166h-207l-258 -1470h205l-28 -166h-431z" />
<glyph unicode="\" horiz-adv-x="876" d="M229 1473l228 55l379 -1665l-226 -53z" />
<glyph unicode="]" horiz-adv-x="614" d="M-41 -340l29 166h207l258 1470h-205l31 166h430l-318 -1802h-432z" />
<glyph unicode="^" horiz-adv-x="1132" d="M209 618l518 762h178l246 -764l-199 -30l-170 544l-364 -546z" />
<glyph unicode="_" horiz-adv-x="1024" d="M-53 -301l26 149h1024l-26 -149h-1024z" />
<glyph unicode="`" horiz-adv-x="1024" d="M584 1483q0 88 151 123l193 -389l-86 -60q-150 154 -219 236q-39 45 -39 90z" />
<glyph unicode="a" horiz-adv-x="1103" d="M147 346q0 324 167 519.5t468 195.5q182 0 367 -72l-139 -792l-15 -197h-211l4 109q-2 0 -4 1t-4 1q-117 -139 -309 -140q-158 0 -241 101.5t-83 273.5zM391 373q0 -225 168 -226q92 0 156.5 53.5t77.5 125.5l92 532q-49 25 -146 25q-94 0 -165.5 -50.5t-109.5 -131 t-55.5 -163.5t-17.5 -165z" />
<glyph unicode="b" horiz-adv-x="1097" d="M137 57l244 1366h244l-82 -456q111 94 264 94q158 0 244 -99.5t86 -283.5q0 -332 -159 -520.5t-446 -188.5q-106 0 -221 25.5t-174 62.5zM406 184q70 -39 161 -39q127 0 224.5 137.5t97.5 360.5q0 100 -42 170t-138 70q-74 0 -134.5 -43t-72.5 -111z" />
<glyph unicode="c" horiz-adv-x="942" d="M156 399q0 178 50 311.5t135 207t179 108.5t197 35q115 0 211 -51.5t147 -159.5l-168 -111q-76 127 -192 127q-137 0 -223 -119.5t-86 -320.5q0 -262 208 -262q119 0 248 86l74 -166q-154 -115 -387 -115q-188 0 -290.5 112.5t-102.5 317.5z" />
<glyph unicode="d" horiz-adv-x="1103" d="M147 352q0 311 163 510t446 199q88 0 162 -25l69 387h242l-217 -1220l-17 -203h-209l5 111q-2 0 -5.5 1t-5.5 1q-119 -143 -301 -144q-174 0 -253 108.5t-79 274.5zM395 381q0 -231 164 -231q92 0 156.5 52t77.5 117l92 535q-55 16 -117 16q-172 0 -272.5 -140 t-100.5 -349z" />
<glyph unicode="e" horiz-adv-x="962" d="M154 381q0 180 70.5 333.5t209.5 250t320 96.5q137 0 216 -65.5t79 -174.5q0 -102 -48.5 -179t-116 -118t-162.5 -66.5t-169 -32.5t-154 -7q-1 -16 -1 -31q0 -90 42 -155q49 -75 170 -74.5t264 90.5l74 -160q-55 -43 -159.5 -81t-237.5 -38q-201 0 -299 112t-98 300z M422 584q53 0 114.5 7t130 27.5t113.5 64.5t45 105q0 47 -29.5 72t-78.5 25q-117 0 -192.5 -91t-102.5 -210z" />
<glyph unicode="f" horiz-adv-x="694" d="M57 -430l267 1517q14 80 35.5 137.5t63.5 116t118.5 89t185.5 30.5q162 0 285 -74l-84 -159q-94 49 -187 49q-76 0 -114.5 -39t-55.5 -131l-14 -76h303l-33 -190h-303l-225 -1270h-242z" />
<glyph unicode="g" horiz-adv-x="1097" d="M123 -285q0 141 75.5 224.5t245.5 154.5q-125 14 -204.5 102.5t-79.5 258.5q0 283 166 444.5t432 161.5q238 0 393 -72l-137 -784q-25 -143 -51 -260q-55 -252 -186.5 -369t-344.5 -117q-150 0 -229.5 67.5t-79.5 188.5zM348 -246q0 -115 123 -114q115 0 174.5 90 t89.5 266l25 131q-59 -61 -195 -133q-111 -59 -164 -110.5t-53 -129.5zM401 453q0 -227 174 -228q86 0 152 53.5t82 147.5l78 434q-72 18 -131 19q-164 0 -259.5 -120t-95.5 -306z" />
<glyph unicode="h" horiz-adv-x="1099" d="M125 0l252 1423h244l-86 -481q119 119 296 119q274 0 275 -250q0 -57 -12 -129l-121 -682h-244l117 657q8 61 8 91q0 61 -25.5 92.5t-91.5 31.5q-92 0 -164.5 -60t-87.5 -142l-116 -670h-244z" />
<glyph unicode="i" horiz-adv-x="499" d="M133 0l182 1030h246l-182 -1030h-246zM346 1303q0 66 48 112.5t118 46.5q53 0 87 -32.5t34 -81.5q0 -68 -49 -113t-119 -45q-55 0 -87 31t-32 82z" />
<glyph unicode="j" horiz-adv-x="499" d="M-272 -385l92 170q78 -43 145.5 -43t101 39t54.5 139l194 1110h244l-194 -1100q-14 -76 -24.5 -119.5t-37.5 -102t-62.5 -89.5t-97 -53.5t-145.5 -22.5q-68 0 -146.5 19.5t-123.5 52.5zM350 1303q0 66 49.5 112.5t118.5 46.5q53 0 86 -32.5t33 -81.5q0 -68 -49 -113 t-119 -45q-55 0 -87 31t-32 82z" />
<glyph unicode="k" horiz-adv-x="1056" d="M129 0l252 1423h244l-115 -583l8 -2q61 102 156.5 162.5t212.5 60.5q106 0 173.5 -61.5t67.5 -184.5q0 -270 -278 -401l162 -414h-273l-127 346q-80 -20 -182 -27l-57 -319h-244zM465 500q190 14 304 94t114 180q0 94 -92 94q-94 0 -193.5 -118.5t-132.5 -249.5z" />
<glyph unicode="l" horiz-adv-x="661" d="M174 199q0 49 14 135l193 1087h244l-191 -1083q-12 -74 -12 -94q2 -47 22.5 -65.5t67.5 -18.5t135 35l31 -164q-100 -61 -258 -62q-133 0 -189.5 59.5t-56.5 170.5z" />
<glyph unicode="m" horiz-adv-x="1673" d="M133 0l150 852l14 178h203l-4 -127q139 158 327 158q205 0 254 -164q127 164 330 164q270 0 270 -258q0 -49 -10 -111l-123 -692h-244l115 649q10 51 10 88q0 135 -116 135q-88 0 -152.5 -62t-79.5 -146l-116 -664h-244l114 649q10 51 11 90q0 133 -119 133 q-88 0 -152.5 -62t-78.5 -151l-115 -659h-244z" />
<glyph unicode="n" horiz-adv-x="1107" d="M133 0l150 852l14 178h205l-2 -129q141 160 342 160q270 0 272 -252q0 -55 -10 -117l-123 -692h-244l115 651q8 43 8 92q0 129 -115 129q-94 0 -166.5 -61t-86.5 -143l-117 -668h-242z" />
<glyph unicode="o" horiz-adv-x="1077" d="M147 367q0 94 13 168q20 123 65 217t102.5 151.5t129 94t138.5 50t136 13.5q61 0 118.5 -15.5t119 -53.5t99.5 -119.5t38 -196.5q0 -90 -10 -162q-43 -283 -198 -414t-376 -131q-180 0 -277.5 102.5t-97.5 295.5zM397 367q0 -217 162 -217q109 0 180.5 94t100.5 258 q12 74 12 164q0 215 -160 215q-109 0 -181.5 -90.5t-98.5 -243.5q-15 -84 -15 -180z" />
<glyph unicode="p" horiz-adv-x="1101" d="M55 -430l250 1423q231 68 424 68q399 0 399 -416q0 -307 -146 -491.5t-392 -184.5q-123 0 -209 60l-82 -459h-244zM414 215q66 -70 178 -70q119 0 205 137.5t86 358.5q0 236 -189 236q-92 0 -170 -25z" />
<glyph unicode="q" d="M150 365q0 322 166.5 509t447.5 187q201 0 379 -76l-250 -1415h-244l88 500h-6q-106 -100 -262 -101q-154 0 -236.5 103t-82.5 293zM391 377q0 -229 158 -230q90 0 155.5 53.5t75.5 110.5l97 549q-68 14 -113 14q-166 0 -269.5 -123.5t-103.5 -373.5z" />
<glyph unicode="r" horiz-adv-x="749" d="M133 0l154 866l10 164h201l-2 -147q45 86 118.5 132t155.5 46q100 0 162 -41l-78 -199q-59 33 -135 33q-82 0 -144.5 -57.5t-82.5 -147.5l-115 -649h-244z" />
<glyph unicode="s" horiz-adv-x="858" d="M63 80l99 168q147 -98 280 -98q80 0 129.5 33.5t49.5 99.5q0 41 -29 71.5t-59.5 46t-86.5 35.5q-61 23 -92.5 39.5t-77 49t-67 81.5t-21.5 117q0 162 117 250t293 88q113 0 212 -44t155 -110l-134 -131q-111 106 -233 107q-74 0 -120 -31t-46 -94q0 -18 4 -34.5t19 -31.5 l23 -23q9 -9 34 -21.5t36 -17.5t45 -19l44 -17q104 -41 166.5 -104.5t62.5 -172.5q0 -168 -114.5 -258t-313.5 -90q-121 0 -224.5 36t-150.5 75z" />
<glyph unicode="t" horiz-adv-x="718" d="M174 182q0 49 14 140l195 1101h244l-70 -393h277l-33 -190h-277l-92 -521q-6 -33 -6 -69q2 -57 25.5 -75.5t78.5 -18.5q72 0 154 45l49 -158q-49 -33 -132 -53.5t-157 -20.5q-266 0 -270 213z" />
<glyph unicode="u" horiz-adv-x="1105" d="M178 238q0 41 10 102l121 690h244l-115 -653q-10 -51 -10 -90q0 -127 133 -127q84 0 152.5 61.5t83.5 143.5l118 665h244l-151 -858l-15 -172h-209l4 119l-12 2q-115 -150 -313 -150q-285 1 -285 267z" />
<glyph unicode="v" horiz-adv-x="1087" d="M176 236q0 49 10 114l119 680h246l-115 -645q-12 -57 -12 -111q0 -113 113 -112q100 0 174.5 93t109.5 231.5t35 295.5q0 104 -10 248h241q10 -96 11 -233q0 -399 -152.5 -612.5t-458.5 -213.5q-307 1 -311 265z" />
<glyph unicode="w" horiz-adv-x="1636" d="M176 227q0 43 10 101l123 702h244l-113 -647q-14 -68 -14 -113q2 -53 27.5 -81.5t87.5 -28.5q82 0 144.5 57t76.5 139l117 674h243l-116 -647q-12 -70 -13 -109q0 -115 111 -114q141 0 221 181t80 443q0 127 -12 246h239q14 -139 15 -239q0 -371 -141.5 -595.5 t-420.5 -224.5q-223 0 -258 172q-133 -172 -356 -172q-293 0 -295 256z" />
<glyph unicode="x" horiz-adv-x="964" d="M-6 0l455 539l-234 491h246l145 -328l268 328h261l-420 -495l256 -535h-254l-164 352l-291 -352h-268z" />
<glyph unicode="y" horiz-adv-x="1099" d="M125 -293q0 127 66.5 213t222.5 160q-119 14 -171.5 72.5t-52.5 162.5q0 47 9 91l110 624h244l-104 -598q-10 -51 -11 -88q0 -127 146 -127q78 0 142.5 54.5t78.5 140.5l110 618h242l-158 -901q-33 -190 -61 -283q-123 -391 -506 -391q-147 0 -227 68.5t-80 183.5z M352 -248q0 -55 34 -84.5t91 -29.5q193 0 246 290l37 199q-76 -74 -197 -135q-113 -57 -162 -107.5t-49 -132.5z" />
<glyph unicode="z" horiz-adv-x="847" d="M-31 -258q0 160 93.5 277.5t297.5 211.5q-47 27 -172 84l27 146l438 379h-465l35 190h768l-26 -153l-523 -455l115 -62q133 -72 193.5 -160.5t60.5 -219.5q0 -227 -144.5 -375t-371.5 -148q-162 0 -244 77t-82 208zM199 -221q0 -137 127 -137q113 0 181 92t68 219 q0 106 -67 170q-152 -57 -230.5 -151.5t-78.5 -192.5z" />
<glyph unicode="{" horiz-adv-x="647" d="M174 -166q0 41 8 78q6 35 33 140.5t45.5 196.5t18.5 138q0 104 -103 117l25 151q88 10 124.5 60.5t51.5 179.5q29 272 31 281q16 147 85.5 222t213.5 75q88 0 174 -23l-47 -150q-55 10 -80 11q-66 0 -90.5 -32t-36.5 -116q-6 -45 -18.5 -168t-20.5 -168 q-29 -195 -180 -252q94 -47 94 -174q0 -66 -50.5 -260t-50.5 -233q0 -94 84 -94q39 0 82 10l-6 -154q-74 -20 -166 -20q-215 0 -221 184z" />
<glyph unicode="|" horiz-adv-x="561" d="M141 -180l303 1710h215l-303 -1710h-215z" />
<glyph unicode="}" horiz-adv-x="647" d="M-29 -326l45 152q49 -12 82 -12q63 0 89 34.5t38 120.5q6 43 19.5 181.5t21.5 187.5q20 111 57 161t121 76q-96 43 -96 177q0 80 45 256t45 213q0 90 -84 90q-25 0 -82 -11l7 152q84 20 165 21q215 0 224 -168q0 -57 -11 -99l-33 -139q-28 -115 -40.5 -183.5 t-12.5 -115.5q0 -55 23.5 -83t79.5 -34l-25 -149q-88 -12 -125 -66.5t-47 -177.5q-20 -225 -35 -324q-23 -156 -95.5 -220t-217.5 -64q-80 -1 -158 24z" />
<glyph unicode="~" horiz-adv-x="1224" d="M199 578q172 219 338 219q88 0 204.5 -80t178.5 -80q96 0 196 135l129 -113q-139 -213 -336 -213q-74 0 -145.5 39t-131 77t-104.5 38q-86 0 -202 -137z" />
<glyph unicode="&#xa1;" horiz-adv-x="540" d="M117 -297l43 238l166 716h145l-84 -716l-43 -242q-18 -96 -131 -96q-99 0 -99 74q0 12 3 26zM305 901q0 63 47 110.5t117 47.5q59 0 91 -32t32 -83q0 -63 -49 -109.5t-115 -46.5q-59 0 -91 31t-32 82z" />
<glyph unicode="&#xa2;" d="M258 518q0 164 43 291t117 201.5t159 114.5t181 51l41 227h153l-41 -234q188 -35 267 -200l-168 -111q-53 92 -133 119l-121 -692q94 8 209 84l73 -166q-129 -94 -317 -113l-37 -213h-154l37 217q-150 23 -229.5 133.5t-79.5 290.5zM508 545q0 -176 98 -236l115 658 q-98 -37 -155.5 -147.5t-57.5 -274.5z" />
<glyph unicode="&#xa3;" horiz-adv-x="1130" d="M-59 -346l32 203q170 66 242 245l80 191h-174l29 172h206l189 485q88 225 196.5 310.5t280.5 85.5q197 0 326 -136l-142 -145q-88 88 -188 88q-92 0 -144.5 -51t-101.5 -180l-178 -457h326l-29 -170h-359l-65 -162q-74 -178 -213 -270v-4q92 29 164 28q63 0 177 -23.5 t185 -23.5q100 0 199 27l-59 -199q-104 -18 -185 -18q-98 0 -259 32.5t-253 32.5q-135 0 -282 -61z" />
<glyph unicode="&#xa5;" horiz-adv-x="1114" d="M172 297l27 156h315l27 153h-316l29 156h229l-194 557h246l159 -522h4l346 522h256l-395 -557h223l-26 -156h-314l-26 -153h311l-26 -156h-314l-51 -297h-248l51 297h-313z" />
<glyph unicode="&#xa6;" horiz-adv-x="563" d="M141 -180l135 766h216l-136 -766h-215zM319 825l123 705h215l-122 -705h-216z" />
<glyph unicode="&#xa7;" horiz-adv-x="1130" d="M145 -348l76 162q98 -53 217 -54q84 0 136.5 46.5t52.5 123.5q0 18 -3 36t-12 34l-14 29q-6 12 -23 27l-25 25q-9 9 -31.5 25.5t-34.5 23.5l-39 26l-39 26q-100 68 -147.5 150t-47.5 217q0 102 35 227l180 31q-16 -72 -16 -141q0 -125 47 -199t137 -131 q133 -82 197.5 -165t64.5 -208q0 -172 -111.5 -276.5t-306.5 -104.5q-164 0 -293 70zM408 985q0 170 119.5 275.5t316.5 105.5q166 0 282 -63l-84 -168q-98 53 -204 53q-86 0 -143.5 -44t-57.5 -122q0 -25 5 -46.5t19.5 -43t25.5 -34.5t38 -35l39 -30l47 -34l47 -33 q195 -135 195 -367q0 -102 -35 -227l-180 -31q16 72 16 142q0 125 -47 198.5t-137 130.5q-133 82 -197.5 165t-64.5 208z" />
<glyph unicode="&#xa8;" horiz-adv-x="1024" d="M424 1341q0 59 45 102.5t111 43.5q49 0 78.5 -31t29.5 -76q0 -59 -46 -102t-110 -43q-49 0 -78.5 29.5t-29.5 76.5zM823 1341q0 59 45 102.5t111 43.5q49 0 78.5 -31t29.5 -76q0 -59 -46 -102t-109 -43q-49 0 -79 29.5t-30 76.5z" />
<glyph unicode="&#xa9;" horiz-adv-x="1667" d="M238 668q0 303 197.5 509.5t502.5 206.5q313 0 516 -204.5t203 -499.5q0 -309 -203 -515t-516 -206q-322 0 -511 197t-189 512zM399 668q0 -256 150.5 -409t390.5 -153t397.5 161t157.5 407q0 242 -158.5 402.5t-396.5 160.5q-240 0 -390.5 -162.5t-150.5 -406.5z M590 678q0 113 33.5 196.5t89 126.5t113 63.5t118.5 20.5q195 0 307 -153l-114 -90q-94 102 -197 102q-78 0 -132 -62.5t-54 -201.5q0 -274 198 -274q92 0 197 86l82 -111q-111 -115 -283 -115q-176 0 -267 109.5t-91 302.5z" />
<glyph unicode="&#xaa;" horiz-adv-x="847" d="M242 786q0 205 114.5 334t313.5 129q147 0 276 -49l-90 -510l-8 -149h-168l2 80h-8q-92 -96 -207 -97q-117 0 -171 72.5t-54 189.5zM434 807q0 -145 105 -145q55 0 95 28.5t44 61.5l61 346q-29 14 -92 14q-104 0 -158.5 -96t-54.5 -209z" />
<glyph unicode="&#xab;" horiz-adv-x="1085" d="M199 539q0 47 69 104q113 92 398 287l84 -107l-316 -297l180 -323l-106 -82q-72 68 -162 175t-131 179q-16 27 -16 64zM616 539q0 47 70 104q113 92 397 287l84 -107l-315 -297l180 -323l-106 -82q-72 68 -162 175t-131 179q-17 27 -17 64z" />
<glyph unicode="&#xac;" d="M221 647l35 197h879l-86 -494h-199l53 297h-682z" />
<glyph unicode="&#xad;" horiz-adv-x="659" d="M174 500l33 190h485l-33 -190h-485z" />
<glyph unicode="&#xae;" horiz-adv-x="948" d="M227 985q0 174 115 287.5t293 113.5q182 0 300 -113.5t118 -283.5q0 -176 -117 -289.5t-301 -113.5q-186 0 -297 111.5t-111 287.5zM336 985q0 -135 84 -221t215 -86q137 0 223 84t86 223q0 133 -88 220t-221 87q-135 0 -217 -86t-82 -221zM498 774v432h155 q143 0 144 -116q0 -86 -70 -119q16 -8 27 -31l73 -166h-102l-63 144q-12 29 -33 28h-39v-172h-92zM590 1020h33q74 0 73 61q0 51 -73 52h-33v-113z" />
<glyph unicode="&#xaf;" horiz-adv-x="1024" d="M436 1268l31 176h588l-31 -176h-588z" />
<glyph unicode="&#xb0;" horiz-adv-x="610" d="M274 1180q0 127 80 204.5t201 77.5q92 0 144.5 -55t52.5 -137q0 -121 -76 -203t-201 -82q-98 0 -149.5 53.5t-51.5 141.5zM403 1196q0 -43 23 -69.5t63 -26.5q61 0 96.5 43t35.5 106q0 96 -86 97q-66 0 -99 -43.5t-33 -106.5z" />
<glyph unicode="&#xb1;" d="M147 72l35 200h305l50 273h-306l35 200h305l58 320h209l-58 -320h316l-35 -200h-316l-49 -273h316l-35 -200h-830z" />
<glyph unicode="&#xb2;" horiz-adv-x="772" d="M207 698l20 119l312 285q117 106 116 184q0 70 -80 70q-82 0 -202 -80l-72 115q172 119 328 118q109 0 164 -55t55 -141q0 -72 -34 -133.5t-118 -137.5l-217 -196h316l-27 -148h-561z" />
<glyph unicode="&#xb3;" horiz-adv-x="772" d="M215 754l68 127q92 -53 194 -54q139 0 139 109q0 45 -34 127q-78 -27 -168 -43l-29 123q205 43 260 92q29 27 29 59q0 72 -82 72q-70 0 -205 -63l-55 110q164 96 317 96q100 0 154.5 -47t54.5 -123q0 -125 -125 -200q63 -115 64 -199q0 -109 -77 -180.5t-241 -71.5 q-158 0 -264 66z" />
<glyph unicode="&#xb4;" horiz-adv-x="1024" d="M516 1221l297 376q137 -35 137 -108q0 -43 -76 -113q-96 -86 -288 -219z" />
<glyph unicode="&#xb5;" horiz-adv-x="1196" d="M78 -442l260 1472h227l-112 -639q-7 -42 -7 -76q0 -168 164 -168q96 0 172 79t99 204l106 600h232l-144 -819q-3 -14 -3 -26q0 -42 42 -42q31 0 82 23l8 -141q-98 -49 -188 -50q-63 0 -109.5 37t-50.5 101q-43 -47 -70.5 -72t-81 -45.5t-120.5 -20.5q-74 0 -125 31 t-72 70l-90 -518h-219z" />
<glyph unicode="&#xb6;" horiz-adv-x="1079" d="M252 799q0 287 171 425t466 138h287l-205 -1169q-27 -147 -56.5 -235.5t-95 -169.5t-175 -129t-284.5 -79l-30 201q209 45 287.5 119.5t105.5 228.5l186 1057h-147l-131 -746q-168 4 -273.5 95.5t-105.5 263.5z" />
<glyph unicode="&#xb7;" horiz-adv-x="632" d="M283 604q0 70 47 117t119 47q59 0 91.5 -30.5t32.5 -82.5q0 -68 -47 -115.5t-120 -47.5q-59 0 -91 30.5t-32 81.5z" />
<glyph unicode="&#xb8;" horiz-adv-x="1024" d="M195 -455l51 111q61 -29 133 -29q115 0 115 76q0 72 -155 72h-17l114 231h117l-66 -141q74 -4 119 -45t45 -109q0 -109 -77.5 -157t-186.5 -48q-120 0 -192 39z" />
<glyph unicode="&#xb9;" horiz-adv-x="772" d="M299 698l25 144h153l82 467l-180 -74l-37 117l281 145h163l-36 -139l-93 -516h144l-27 -144h-475z" />
<glyph unicode="&#xba;" horiz-adv-x="831" d="M233 807q0 125 37 216t97.5 138t126 68.5t139.5 21.5q115 0 197.5 -65.5t82.5 -212.5q0 -207 -109.5 -328t-287.5 -121q-137 0 -210 75t-73 208zM428 819q0 -156 104 -155q84 0 134.5 78.5t52.5 222.5q0 150 -111 149q-88 0 -134 -85t-46 -210z" />
<glyph unicode="&#xbb;" horiz-adv-x="1085" d="M119 219l307 330l-203 291l107 90q158 -139 288 -285q41 -51 41 -88q0 -41 -38 -82q-59 -63 -192.5 -176t-225.5 -178zM537 219l307 330l-203 291l107 90q158 -139 288 -285q41 -51 41 -88q0 -41 -39 -82q-59 -63 -192 -176t-225 -178z" />
<glyph unicode="&#xbc;" horiz-adv-x="1689" d="M190 535l25 143h154l82 467l-181 -74l-37 117l281 145h164l-37 -139l-92 -516h143l-26 -143h-476zM512 55l825 1284l154 -71l-829 -1286zM1067 178l20 109l345 534l139 -67l-295 -445h149l103 213h112l-38 -213h124l-22 -135h-125l-33 -174h-178l31 178h-332z" />
<glyph unicode="&#xbd;" horiz-adv-x="1689" d="M195 535l24 143h154l82 467l-181 -74l-36 117l280 145h164l-37 -139l-92 -516h143l-26 -143h-475zM469 55l825 1284l154 -71l-830 -1286zM1106 0l20 119l312 284q117 106 116 185q0 70 -79 69q-82 0 -203 -79l-72 114q172 119 328 119q109 0 164 -55.5t55 -141.5 q0 -72 -34 -133t-118 -137l-217 -197h316l-27 -147h-561z" />
<glyph unicode="&#xbe;" horiz-adv-x="1689" d="M164 590l67 127q92 -53 195 -53q139 0 139 108q0 45 -35 127q-78 -27 -168 -43l-28 123q205 43 260 92q29 27 29 59q0 72 -82 72q-70 0 -205 -63l-55 110q164 96 317 97q100 0 154.5 -47.5t54.5 -122.5q0 -125 -125 -201q63 -115 63 -199q0 -109 -76.5 -180.5 t-240.5 -71.5q-158 0 -264 66zM496 55l825 1284l154 -71l-830 -1286zM1040 178l21 109l344 534l139 -67l-295 -445h150l102 213h113l-39 -213h125l-23 -135h-125l-32 -174h-179l31 178h-332z" />
<glyph unicode="&#xbf;" horiz-adv-x="768" d="M76 -133q0 133 64.5 217t230.5 188q66 41 93.5 73t37.5 89l41 225h186q-6 -131 -22 -215q-20 -121 -61.5 -187.5t-141.5 -129.5q-121 -76 -152 -115q-39 -45 -39 -104q0 -111 113 -111q84 0 244 56l8 -189q-174 -59 -303 -59q-150 0 -224.5 73.5t-74.5 188.5zM530 903 q0 63 47.5 110.5t116.5 47.5q59 0 91 -32t32 -83q0 -63 -49 -109t-115 -46q-59 0 -91 30.5t-32 81.5z" />
<glyph unicode="&#xc0;" horiz-adv-x="1280" d="M25 0l698 1362h295l237 -1362h-245l-58 360h-479l-184 -360h-264zM549 549h379l-80 584h-10zM655 1710q0 72 123 137l287 -323l-68 -72l-278 166q-64 41 -64 92z" />
<glyph unicode="&#xc1;" horiz-adv-x="1280" d="M25 0l698 1362h295l237 -1362h-245l-58 360h-479l-184 -360h-264zM549 549h379l-80 584h-10zM719 1532l371 303q100 -63 100 -125q0 -59 -103 -115q-35 -18 -311 -143z" />
<glyph unicode="&#xc2;" horiz-adv-x="1280" d="M25 0l698 1362h295l237 -1362h-245l-58 360h-479l-184 -360h-264zM549 549h379l-80 584h-10zM569 1524q156 156 269 245q61 49 108 50q45 0 98 -60q88 -98 177 -235l-84 -70l-213 184l-277 -186z" />
<glyph unicode="&#xc3;" horiz-adv-x="1280" d="M25 0l698 1362h295l237 -1362h-245l-58 360h-479l-184 -360h-264zM549 549h379l-80 584h-10zM614 1501l9 152q90 59 180 59q55 0 139 -26.5t129 -26.5q66 0 133 37l-10 -162q-78 -37 -145 -37q-45 0 -139.5 22.5t-135.5 22.5q-78 0 -160 -41z" />
<glyph unicode="&#xc4;" horiz-adv-x="1280" d="M25 0l698 1362h295l237 -1362h-245l-58 360h-479l-184 -360h-264zM549 549h379l-80 584h-10zM584 1583q0 59 45 102.5t110 43.5q49 0 79 -31t30 -76q0 -59 -46 -102t-110 -43q-49 0 -78.5 29.5t-29.5 76.5zM983 1583q0 59 45 102.5t111 43.5q49 0 78.5 -31t29.5 -76 q0 -59 -46 -102t-109 -43q-49 0 -79 29.5t-30 76.5z" />
<glyph unicode="&#xc5;" horiz-adv-x="1280" d="M25 0l700 1360q-35 45 -35 108q0 90 64.5 155t163.5 65q82 0 124.5 -46.5t42.5 -117.5q0 -100 -71 -162l241 -1362h-245l-58 360h-479l-184 -360h-264zM549 549h379l-80 584h-10zM813 1481q0 -70 64 -70q39 0 63.5 29.5t24.5 75.5q0 66 -64 65q-37 0 -62.5 -28.5 t-25.5 -71.5z" />
<glyph unicode="&#xc6;" horiz-adv-x="1679" d="M14 0l703 1362h1124l-37 -217h-735l64 -342h530l-39 -215h-479l67 -371h441l-37 -217h-621l-61 381h-465l-195 -381h-260zM549 571h366l-84 553h-4z" />
<glyph unicode="&#xc7;" horiz-adv-x="1208" d="M193 518q0 233 63 407.5t172 271.5t232.5 143t265.5 46q303 0 442 -262l-190 -118q-102 170 -273 170q-201 0 -325.5 -170t-124.5 -453q0 -371 290 -371q160 0 345 144l106 -164q-211 -166 -444 -185l-52 -112q74 -4 119 -45t45 -109q0 -109 -77.5 -157t-186.5 -48 q-121 0 -192 39l51 111q61 -29 133 -29q115 0 115 76q0 72 -155 72h-17l100 202q-211 16 -326.5 155.5t-115.5 385.5z" />
<glyph unicode="&#xc8;" horiz-adv-x="1042" d="M143 0l240 1362h821l-37 -217h-573l-59 -342h491l-39 -215h-491l-64 -371h586l-39 -217h-836zM596 1710q0 72 123 137l287 -323l-68 -72l-279 166q-63 41 -63 92z" />
<glyph unicode="&#xc9;" horiz-adv-x="1042" d="M143 0l240 1362h821l-37 -217h-573l-59 -342h491l-39 -215h-491l-64 -371h586l-39 -217h-836zM625 1532l370 303q100 -63 101 -125q0 -59 -103 -115q-35 -18 -311 -143z" />
<glyph unicode="&#xca;" horiz-adv-x="1042" d="M143 0l240 1362h821l-37 -217h-573l-59 -342h491l-39 -215h-491l-64 -371h586l-39 -217h-836zM489 1524q156 156 269 245q61 49 108 50q45 0 99 -60q88 -98 176 -235l-84 -70l-213 184l-277 -186z" />
<glyph unicode="&#xcb;" horiz-adv-x="1042" d="M143 0l240 1362h821l-37 -217h-573l-59 -342h491l-39 -215h-491l-64 -371h586l-39 -217h-836zM500 1583q0 59 45 102.5t110 43.5q49 0 79 -31t30 -76q0 -59 -46 -102t-110 -43q-49 0 -78.5 29.5t-29.5 76.5zM899 1583q0 59 45 102.5t111 43.5q49 0 78.5 -31t29.5 -76 q0 -59 -46 -102t-109 -43q-49 0 -79 29.5t-30 76.5z" />
<glyph unicode="&#xcc;" horiz-adv-x="544" d="M147 0l240 1362h250l-240 -1362h-250zM309 1710q0 72 123 137l287 -323l-68 -72l-278 166q-64 41 -64 92z" />
<glyph unicode="&#xcd;" horiz-adv-x="544" d="M147 0l240 1362h250l-240 -1362h-250zM352 1532l371 303q100 -63 100 -125q0 -59 -102 -115q-35 -18 -311 -143z" />
<glyph unicode="&#xce;" horiz-adv-x="544" d="M147 0l240 1362h250l-240 -1362h-250zM217 1524q156 156 268 245q61 49 109 50q45 0 98 -60q88 -98 176 -235l-84 -70l-213 184l-276 -186z" />
<glyph unicode="&#xcf;" horiz-adv-x="544" d="M147 0l240 1362h250l-240 -1362h-250zM227 1583q0 59 45 102.5t111 43.5q49 0 79 -31t30 -76q0 -59 -46.5 -102t-109.5 -43q-49 0 -79 29.5t-30 76.5zM627 1583q0 59 45 102.5t110 43.5q49 0 79 -31t30 -76q0 -59 -46 -102t-110 -43q-49 0 -78.5 29.5t-29.5 76.5z" />
<glyph unicode="&#xd0;" horiz-adv-x="1335" d="M121 588l35 196h141l102 578h445q258 0 400 -133t142 -385q0 -219 -61 -385t-171 -264.5t-245 -146.5t-295 -48h-454l102 588h-141zM444 197h205q219 0 349 167.5t130 452.5q0 346 -329 346h-185l-67 -379h348l-35 -196h-348z" />
<glyph unicode="&#xd1;" horiz-adv-x="1363" d="M143 0l240 1362h252l409 -946h3l165 946h248l-239 -1362h-240l-418 961h-4l-168 -961h-248zM668 1501l8 152q90 59 180 59q55 0 139 -26.5t129 -26.5q66 0 133 37l-10 -162q-78 -37 -145 -37q-45 0 -139.5 22.5t-135.5 22.5q-77 0 -159 -41z" />
<glyph unicode="&#xd2;" horiz-adv-x="1357" d="M190 492q0 127 19 225q27 156 85 275.5t129 192t161 120t173 64.5t171 17q213 0 345 -133t132 -385q0 -102 -16 -206q-53 -350 -243 -518.5t-472 -168.5q-229 0 -356.5 135.5t-127.5 381.5zM451 516q0 -334 268 -334q172 0 272.5 136.5t136.5 345.5q14 90 15 165 q0 150 -58.5 248.5t-193.5 98.5q-172 0 -279.5 -135.5t-142.5 -338.5q-18 -106 -18 -186zM737 1710q0 72 123 137l287 -323l-68 -72l-278 166q-64 41 -64 92z" />
<glyph unicode="&#xd3;" horiz-adv-x="1357" d="M190 492q0 127 19 225q27 156 85 275.5t129 192t161 120t173 64.5t171 17q213 0 345 -133t132 -385q0 -102 -16 -206q-53 -350 -243 -518.5t-472 -168.5q-229 0 -356.5 135.5t-127.5 381.5zM451 516q0 -334 268 -334q172 0 272.5 136.5t136.5 345.5q14 90 15 165 q0 150 -58.5 248.5t-193.5 98.5q-172 0 -279.5 -135.5t-142.5 -338.5q-18 -106 -18 -186zM754 1532l370 303q100 -63 101 -125q0 -59 -103 -115q-35 -18 -311 -143z" />
<glyph unicode="&#xd4;" horiz-adv-x="1357" d="M190 492q0 127 19 225q27 156 85 275.5t129 192t161 120t173 64.5t171 17q213 0 345 -133t132 -385q0 -102 -16 -206q-53 -350 -243 -518.5t-472 -168.5q-229 0 -356.5 135.5t-127.5 381.5zM451 516q0 -334 268 -334q172 0 272.5 136.5t136.5 345.5q14 90 15 165 q0 150 -58.5 248.5t-193.5 98.5q-172 0 -279.5 -135.5t-142.5 -338.5q-18 -106 -18 -186zM635 1524q156 156 268 245q61 49 109 50q45 0 98 -60q88 -98 176 -235l-84 -70l-213 184l-276 -186z" />
<glyph unicode="&#xd5;" horiz-adv-x="1357" d="M190 492q0 127 19 225q27 156 85 275.5t129 192t161 120t173 64.5t171 17q213 0 345 -133t132 -385q0 -102 -16 -206q-53 -350 -243 -518.5t-472 -168.5q-229 0 -356.5 135.5t-127.5 381.5zM451 516q0 -334 268 -334q172 0 272.5 136.5t136.5 345.5q14 90 15 165 q0 150 -58.5 248.5t-193.5 98.5q-172 0 -279.5 -135.5t-142.5 -338.5q-18 -106 -18 -186zM674 1501l8 152q88 59 180 59q55 0 139 -26.5t129 -26.5q66 0 134 37l-11 -162q-78 -37 -145 -37q-47 0 -141.5 22.5t-132.5 22.5q-78 0 -160 -41z" />
<glyph unicode="&#xd6;" horiz-adv-x="1357" d="M190 492q0 127 19 225q27 156 85 275.5t129 192t161 120t173 64.5t171 17q213 0 345 -133t132 -385q0 -102 -16 -206q-53 -350 -243 -518.5t-472 -168.5q-229 0 -356.5 135.5t-127.5 381.5zM451 516q0 -334 268 -334q172 0 272.5 136.5t136.5 345.5q14 90 15 165 q0 150 -58.5 248.5t-193.5 98.5q-172 0 -279.5 -135.5t-142.5 -338.5q-18 -106 -18 -186zM639 1583q0 59 45 102.5t111 43.5q49 0 78.5 -31t29.5 -76q0 -59 -46 -102t-109 -43q-49 0 -79 29.5t-30 76.5zM1038 1583q0 59 45 102.5t111 43.5q49 0 79 -31t30 -76 q0 -59 -46.5 -102t-109.5 -43q-49 0 -79 29.5t-30 76.5z" />
<glyph unicode="&#xd7;" d="M244 412l274 231l-194 234l172 145l192 -234l273 234l120 -148l-274 -233l188 -225l-172 -148l-186 228l-272 -232z" />
<glyph unicode="&#xd8;" horiz-adv-x="1359" d="M172 -111l147 220q-129 135 -129 383q0 127 19 225q27 156 85 275.5t129 192t161 120t173 64.5t171 17q123 0 219 -45l123 185l164 -96l-138 -205q109 -135 109 -357q0 -102 -16 -206q-53 -350 -243 -518.5t-472 -168.5q-100 0 -197 31l-145 -215zM451 516 q0 -106 24 -174l539 803q-55 31 -123 31q-172 0 -279.5 -135.5t-142.5 -338.5q-18 -106 -18 -186zM606 201q45 -18 113 -19q172 0 272.5 136.5t136.5 345.5q14 90 15 165q0 84 -17 144z" />
<glyph unicode="&#xd9;" horiz-adv-x="1288" d="M201 322q0 66 10 118l162 922h248l-160 -918q-8 -53 -8 -73q0 -100 58 -143.5t171 -43.5q258 0 301 250l164 928h248l-170 -961q-76 -428 -561 -428q-463 1 -463 349zM690 1710q0 72 123 137l287 -323l-68 -72l-278 166q-64 41 -64 92z" />
<glyph unicode="&#xda;" horiz-adv-x="1288" d="M201 322q0 66 10 118l162 922h248l-160 -918q-8 -53 -8 -73q0 -100 58 -143.5t171 -43.5q258 0 301 250l164 928h248l-170 -961q-76 -428 -561 -428q-463 1 -463 349zM719 1532l371 303q100 -63 100 -125q0 -59 -103 -115q-35 -18 -311 -143z" />
<glyph unicode="&#xdb;" horiz-adv-x="1288" d="M201 322q0 66 10 118l162 922h248l-160 -918q-8 -53 -8 -73q0 -100 58 -143.5t171 -43.5q258 0 301 250l164 928h248l-170 -961q-76 -428 -561 -428q-463 1 -463 349zM588 1524q156 156 268 245q61 49 109 50q45 0 98 -60q88 -98 176 -235l-84 -70l-213 184l-276 -186z " />
<glyph unicode="&#xdc;" horiz-adv-x="1288" d="M201 322q0 66 10 118l162 922h248l-160 -918q-8 -53 -8 -73q0 -100 58 -143.5t171 -43.5q258 0 301 250l164 928h248l-170 -961q-76 -428 -561 -428q-463 1 -463 349zM631 1583q0 59 45 102.5t110 43.5q49 0 79 -31t30 -76q0 -59 -46 -102t-110 -43q-49 0 -78.5 29.5 t-29.5 76.5zM1030 1583q0 59 45 102.5t111 43.5q49 0 78.5 -31t29.5 -76q0 -59 -46 -102t-109 -43q-49 0 -79 29.5t-30 76.5z" />
<glyph unicode="&#xdd;" horiz-adv-x="1138" d="M242 1362h262l192 -602h2l408 602h276l-596 -842l-92 -520h-250l93 520zM639 1532l371 303q100 -63 100 -125q0 -59 -102 -115q-35 -18 -312 -143z" />
<glyph unicode="&#xde;" horiz-adv-x="1167" d="M141 0l240 1362h250l-37 -211h213q201 0 313.5 -94t112.5 -269q0 -256 -167 -389t-441 -133h-187l-47 -266h-250zM473 465h148q168 0 259 68.5t91 230.5q0 109 -66.5 148.5t-185.5 39.5h-158z" />
<glyph unicode="&#xdf;" horiz-adv-x="1198" d="M57 -430l265 1495q14 90 44.5 157.5t90 130t163 95.5t244.5 33q201 0 306.5 -77t105.5 -194q0 -74 -36 -136t-87 -105t-101.5 -80t-86 -74t-35.5 -74q0 -35 28.5 -67.5t69.5 -62t81 -65.5t68.5 -91.5t28.5 -120.5q0 -176 -113.5 -270.5t-295.5 -94.5q-84 0 -171 22.5 t-134 55.5l86 170q109 -66 208 -65q78 0 127.5 39.5t49.5 117.5q0 53 -42 97.5t-93.5 73t-93.5 81.5t-42 121q0 80 55.5 151.5t120 115.5t118.5 104.5t54 117.5q0 59 -54 92t-146 33q-238 0 -277 -231l-264 -1495h-242z" />
<glyph unicode="&#xe0;" horiz-adv-x="1103" d="M147 346q0 324 167 519.5t468 195.5q182 0 367 -72l-139 -792l-15 -197h-211l4 109q-2 0 -4 1t-4 1q-117 -139 -309 -140q-158 0 -241 101.5t-83 273.5zM391 373q0 -225 168 -226q92 0 156.5 53.5t77.5 125.5l92 532q-49 25 -146 25q-94 0 -165.5 -50.5t-109.5 -131 t-55.5 -163.5t-17.5 -165zM614 1483q0 88 152 123l192 -389l-86 -60q-150 154 -219 236q-39 45 -39 90z" />
<glyph unicode="&#xe1;" horiz-adv-x="1103" d="M147 346q0 324 167 519.5t468 195.5q182 0 367 -72l-139 -792l-15 -197h-211l4 109q-2 0 -4 1t-4 1q-117 -139 -309 -140q-158 0 -241 101.5t-83 273.5zM391 373q0 -225 168 -226q92 0 156.5 53.5t77.5 125.5l92 532q-49 25 -146 25q-94 0 -165.5 -50.5t-109.5 -131 t-55.5 -163.5t-17.5 -165zM643 1221l297 376q137 -35 137 -108q0 -43 -76 -113q-96 -86 -288 -219z" />
<glyph unicode="&#xe2;" horiz-adv-x="1103" d="M147 346q0 324 167 519.5t468 195.5q182 0 367 -72l-139 -792l-15 -197h-211l4 109q-2 0 -4 1t-4 1q-117 -139 -309 -140q-158 0 -241 101.5t-83 273.5zM391 373q0 -225 168 -226q92 0 156.5 53.5t77.5 125.5l92 532q-49 25 -146 25q-94 0 -165.5 -50.5t-109.5 -131 t-55.5 -163.5t-17.5 -165zM473 1247q133 158 258 279q72 66 125 65q37 0 56.5 -13t45.5 -52q92 -133 162 -283l-84 -63l-205 215l-278 -215z" />
<glyph unicode="&#xe3;" horiz-adv-x="1103" d="M147 346q0 324 167 519.5t468 195.5q182 0 367 -72l-139 -792l-15 -197h-211l4 109q-2 0 -4 1t-4 1q-117 -139 -309 -140q-158 0 -241 101.5t-83 273.5zM391 373q0 -225 168 -226q92 0 156.5 53.5t77.5 125.5l92 532q-49 25 -146 25q-94 0 -165.5 -50.5t-109.5 -131 t-55.5 -163.5t-17.5 -165zM535 1260l8 151q84 59 180 59q55 0 139 -26.5t129 -26.5q55 0 133 37l-10 -160q-78 -39 -147 -39q-47 0 -140.5 24t-132.5 24q-73 0 -159 -43z" />
<glyph unicode="&#xe4;" horiz-adv-x="1103" d="M147 346q0 324 167 519.5t468 195.5q182 0 367 -72l-139 -792l-15 -197h-211l4 109q-2 0 -4 1t-4 1q-117 -139 -309 -140q-158 0 -241 101.5t-83 273.5zM391 373q0 -225 168 -226q92 0 156.5 53.5t77.5 125.5l92 532q-49 25 -146 25q-94 0 -165.5 -50.5t-109.5 -131 t-55.5 -163.5t-17.5 -165zM498 1341q0 59 45 102.5t110 43.5q49 0 79 -31t30 -76q0 -59 -46 -102t-110 -43q-49 0 -78.5 29.5t-29.5 76.5zM897 1341q0 59 45 102.5t111 43.5q49 0 78.5 -31t29.5 -76q0 -59 -46 -102t-109 -43q-49 0 -79 29.5t-30 76.5z" />
<glyph unicode="&#xe5;" horiz-adv-x="1103" d="M147 346q0 324 167 519.5t468 195.5q182 0 367 -72l-139 -792l-15 -197h-211l4 109q-2 0 -4 1t-4 1q-117 -139 -309 -140q-158 0 -241 101.5t-83 273.5zM391 373q0 -225 168 -226q92 0 156.5 53.5t77.5 125.5l92 532q-49 25 -146 25q-94 0 -165.5 -50.5t-109.5 -131 t-55.5 -163.5t-17.5 -165zM621 1317q0 90 64.5 154.5t162.5 64.5q82 0 125 -46t43 -118q0 -92 -63.5 -154.5t-164.5 -62.5q-82 0 -124.5 45t-42.5 117zM743 1329q0 -70 64 -69q39 0 63.5 29.5t24.5 74.5q0 66 -64 66q-37 0 -62.5 -29t-25.5 -72z" />
<glyph unicode="&#xe6;" horiz-adv-x="1519" d="M147 348q0 317 171 515t470 198q150 0 281 -68q123 68 266 68q133 0 207 -62.5t74 -179.5q0 -100 -49 -176t-119 -117t-166 -66.5t-167 -32.5t-146 -9q-4 -27 -4 -52q0 -79 40 -136q52 -75 173 -74q129 0 266 86l63 -156q-49 -39 -157.5 -78t-237.5 -39q-215 0 -305 117 q-158 -117 -324 -117q-174 0 -255 104.5t-81 274.5zM395 387q0 -106 41 -171.5t129 -65.5q102 0 178 65q-23 61 -22 160q0 260 174 471q-74 39 -170 39q-106 0 -184 -82t-112 -191.5t-34 -224.5zM989 575q51 0 113.5 9.5t131.5 30t115 66.5t46 107q0 45 -32 71t-77 26 q-117 0 -193.5 -94.5t-103.5 -215.5z" />
<glyph unicode="&#xe7;" horiz-adv-x="942" d="M156 399q0 178 50 311.5t135 207t179 108.5t197 35q115 0 211 -51.5t147 -159.5l-168 -111q-76 127 -192 127q-137 0 -223 -119.5t-86 -320.5q0 -262 208 -262q119 0 248 86l74 -166q-131 -96 -332 -113l-49 -106q74 -4 119 -45t45 -109q0 -109 -78 -157t-186 -48 q-121 0 -193 39l51 111q61 -29 133 -29q115 0 115 76q0 72 -155 72h-17l98 198q-160 18 -245.5 129t-85.5 297z" />
<glyph unicode="&#xe8;" horiz-adv-x="962" d="M154 381q0 180 70.5 333.5t209.5 250t320 96.5q137 0 216 -65.5t79 -174.5q0 -102 -48.5 -179t-116 -118t-162.5 -66.5t-169 -32.5t-154 -7q-1 -16 -1 -31q0 -90 42 -155q49 -75 170 -74.5t264 90.5l74 -160q-55 -43 -159.5 -81t-237.5 -38q-201 0 -299 112t-98 300z M422 584q53 0 114.5 7t130 27.5t113.5 64.5t45 105q0 47 -29.5 72t-78.5 25q-117 0 -192.5 -91t-102.5 -210zM559 1483q0 88 152 123l192 -389l-86 -60q-150 154 -219 236q-39 45 -39 90z" />
<glyph unicode="&#xe9;" horiz-adv-x="962" d="M154 381q0 180 70.5 333.5t209.5 250t320 96.5q137 0 216 -65.5t79 -174.5q0 -102 -48.5 -179t-116 -118t-162.5 -66.5t-169 -32.5t-154 -7q-1 -16 -1 -31q0 -90 42 -155q49 -75 170 -74.5t264 90.5l74 -160q-55 -43 -159.5 -81t-237.5 -38q-201 0 -299 112t-98 300z M422 584q53 0 114.5 7t130 27.5t113.5 64.5t45 105q0 47 -29.5 72t-78.5 25q-117 0 -192.5 -91t-102.5 -210zM571 1221l297 376q137 -35 138 -108q0 -43 -76 -113q-96 -86 -289 -219z" />
<glyph unicode="&#xea;" horiz-adv-x="962" d="M154 381q0 180 70.5 333.5t209.5 250t320 96.5q137 0 216 -65.5t79 -174.5q0 -102 -48.5 -179t-116 -118t-162.5 -66.5t-169 -32.5t-154 -7q-1 -16 -1 -31q0 -90 42 -155q49 -75 170 -74.5t264 90.5l74 -160q-55 -43 -159.5 -81t-237.5 -38q-201 0 -299 112t-98 300z M422 584q53 0 114.5 7t130 27.5t113.5 64.5t45 105q0 47 -29.5 72t-78.5 25q-117 0 -192.5 -91t-102.5 -210zM438 1247q133 158 258 279q72 66 125 65q37 0 56.5 -13t46.5 -52q92 -133 161 -283l-84 -63l-204 215l-279 -215z" />
<glyph unicode="&#xeb;" horiz-adv-x="962" d="M154 381q0 180 70.5 333.5t209.5 250t320 96.5q137 0 216 -65.5t79 -174.5q0 -102 -48.5 -179t-116 -118t-162.5 -66.5t-169 -32.5t-154 -7q-1 -16 -1 -31q0 -90 42 -155q49 -75 170 -74.5t264 90.5l74 -160q-55 -43 -159.5 -81t-237.5 -38q-201 0 -299 112t-98 300z M422 584q53 0 114.5 7t130 27.5t113.5 64.5t45 105q0 47 -29.5 72t-78.5 25q-117 0 -192.5 -91t-102.5 -210zM444 1341q0 59 45.5 102.5t110.5 43.5q49 0 79 -31t30 -76q0 -59 -46.5 -102t-109.5 -43q-49 0 -79 29.5t-30 76.5zM844 1341q0 59 45 102.5t110 43.5q49 0 79 -31 t30 -76q0 -59 -46 -102t-110 -43q-49 0 -78.5 29.5t-29.5 76.5z" />
<glyph unicode="&#xec;" horiz-adv-x="499" d="M133 0l182 1030h246l-182 -1030h-246zM301 1483q0 88 152 123l192 -389l-86 -60q-150 154 -219 236q-39 45 -39 90z" />
<glyph unicode="&#xed;" horiz-adv-x="499" d="M133 0l182 1030h246l-182 -1030h-246zM299 1221l297 376q137 -35 137 -108q0 -43 -76 -113q-96 -86 -288 -219z" />
<glyph unicode="&#xee;" horiz-adv-x="499" d="M133 0l182 1030h246l-182 -1030h-246zM154 1247q133 158 258 279q72 66 125 65q37 0 56 -13t46 -52q92 -133 162 -283l-84 -63l-205 215l-279 -215z" />
<glyph unicode="&#xef;" horiz-adv-x="499" d="M133 0l182 1030h246l-182 -1030h-246zM164 1341q0 59 45 102.5t110 43.5q49 0 79 -31t30 -76q0 -59 -46 -102t-110 -43q-49 0 -78.5 29.5t-29.5 76.5zM563 1341q0 59 45 102.5t111 43.5q49 0 78.5 -31t29.5 -76q0 -59 -46 -102t-109 -43q-49 0 -79 29.5t-30 76.5z" />
<glyph unicode="&#xf0;" horiz-adv-x="1040" d="M125 334q0 84 10 135q41 217 165 329.5t314 112.5q143 0 246 -77q-4 160 -69 266l-185 -113l-80 129l154 98q-80 53 -191 76l68 178q199 -27 326 -133l184 113l78 -129l-154 -96q109 -184 109 -418q0 -145 -21 -256q-47 -266 -187 -422t-390 -156q-186 0 -281.5 101.5 t-95.5 261.5zM381 354q0 -88 40 -138t116 -50q111 0 186.5 102.5t103.5 266.5q16 100 17 112q-31 31 -90.5 53.5t-114.5 22.5q-201 0 -250 -272q-8 -44 -8 -97z" />
<glyph unicode="&#xf1;" horiz-adv-x="1101" d="M133 0l150 852l14 178h205l-2 -129q141 160 342 160q270 0 272 -252q0 -55 -10 -117l-123 -692h-244l115 651q8 43 8 92q0 129 -115 129q-94 0 -166.5 -61t-86.5 -143l-117 -668h-242zM496 1260l8 151q84 59 180 59q55 0 139 -26.5t129 -26.5q55 0 133 37l-10 -160 q-78 -39 -147 -39q-47 0 -140.5 24t-132.5 24q-73 0 -159 -43z" />
<glyph unicode="&#xf2;" horiz-adv-x="1077" d="M147 367q0 -193 97.5 -295.5t277.5 -102.5q221 0 376 131t198 414q10 72 10 162q0 115 -38 196.5t-99.5 119.5t-118.5 53.5t-119 15.5q-70 0 -136.5 -13.5t-138 -50t-129 -94t-102.5 -152t-65 -216.5q-13 -74 -13 -168zM397 367q0 96 15 180q27 154 99.5 244t180.5 90 q160 0 160 -215q0 -90 -12 -164q-29 -164 -100.5 -258t-180.5 -94q-162 0 -162 217zM571 1483q0 88 152 123l192 -389l-86 -60q-150 154 -219 236q-39 45 -39 90z" />
<glyph unicode="&#xf3;" horiz-adv-x="1077" d="M147 367q0 94 13 168q20 123 65 217t102.5 151.5t129 94t138.5 50t136 13.5q61 0 118.5 -15.5t119 -53.5t99.5 -119.5t38 -196.5q0 -90 -10 -162q-43 -283 -198 -414t-376 -131q-180 0 -277.5 102.5t-97.5 295.5zM397 367q0 -217 162 -217q109 0 180.5 94t100.5 258 q12 74 12 164q0 215 -160 215q-109 0 -181.5 -90.5t-98.5 -243.5q-15 -84 -15 -180zM600 1221l297 376q137 -35 137 -108q0 -43 -76 -113q-96 -86 -288 -219z" />
<glyph unicode="&#xf4;" horiz-adv-x="1077" d="M147 367q0 -193 97.5 -295.5t277.5 -102.5q221 0 376 131t198 414q10 72 10 162q0 115 -38 196.5t-99.5 119.5t-118.5 53.5t-119 15.5q-70 0 -136.5 -13.5t-138 -50t-129 -94t-102.5 -152t-65 -216.5q-13 -74 -13 -168zM397 367q0 96 15 180q27 154 99.5 244t180.5 90 q160 0 160 -215q0 -90 -12 -164q-29 -164 -100.5 -258t-180.5 -94q-162 0 -162 217zM438 1247q133 158 258 279q72 66 125 65q37 0 56.5 -13t46.5 -52q92 -133 161 -283l-84 -63l-204 215l-279 -215z" />
<glyph unicode="&#xf5;" horiz-adv-x="1077" d="M147 367q0 94 13 168q20 123 65 217t102.5 151.5t129 94t138.5 50t136 13.5q61 0 118.5 -15.5t119 -53.5t99.5 -119.5t38 -196.5q0 -90 -10 -162q-43 -283 -198 -414t-376 -131q-180 0 -277.5 102.5t-97.5 295.5zM397 367q0 -217 162 -217q109 0 180.5 94t100.5 258 q12 74 12 164q0 215 -160 215q-109 0 -181.5 -90.5t-98.5 -243.5q-15 -84 -15 -180zM487 1260l9 151q84 59 180 59q55 0 139 -26.5t129 -26.5q55 0 133 37l-10 -160q-78 -39 -147 -39q-47 0 -140.5 24t-132.5 24q-74 0 -160 -43z" />
<glyph unicode="&#xf6;" horiz-adv-x="1077" d="M147 367q0 -193 97.5 -295.5t277.5 -102.5q221 0 376 131t198 414q10 72 10 162q0 115 -38 196.5t-99.5 119.5t-118.5 53.5t-119 15.5q-70 0 -136.5 -13.5t-138 -50t-129 -94t-102.5 -152t-65 -216.5q-13 -74 -13 -168zM397 367q0 96 15 180q27 154 99.5 244t180.5 90 q160 0 160 -215q0 -90 -12 -164q-29 -164 -100.5 -258t-180.5 -94q-162 0 -162 217zM449 1341q0 59 45 102.5t110 43.5q49 0 79 -31t30 -76q0 -59 -46 -102t-110 -43q-49 0 -78.5 29.5t-29.5 76.5zM848 1341q0 59 45 102.5t111 43.5q49 0 78.5 -31t29.5 -76q0 -59 -46 -102 t-110 -43q-49 0 -78.5 29.5t-29.5 76.5z" />
<glyph unicode="&#xf7;" d="M229 545l35 198h830l-35 -198h-830zM461 246q0 68 45 117t115 49q53 0 82.5 -31t29.5 -82q0 -68 -46 -117t-114 -49q-53 0 -82.5 31t-29.5 82zM573 973q0 68 45.5 117t114.5 49q53 0 83 -31t30 -82q0 -68 -46 -117t-114 -49q-53 0 -83 31t-30 82z" />
<glyph unicode="&#xf8;" horiz-adv-x="1077" d="M109 -98l124 180q-86 102 -86 285q0 94 13 168q20 123 65 217t102.5 151.5t129 94t138.5 50t136 13.5q82 0 162 -29l106 154l134 -82l-113 -160q86 -100 86 -268q0 -90 -10 -162q-43 -283 -198 -414t-376 -131q-92 0 -160 27l-120 -178zM397 367q0 -33 2 -48l375 541 q-33 20 -82 21q-109 0 -181.5 -90.5t-98.5 -243.5q-15 -84 -15 -180zM481 166q33 -16 78 -16q109 0 180.5 94t100.5 258q12 74 12 164q0 23 -2 32z" />
<glyph unicode="&#xf9;" horiz-adv-x="1105" d="M178 238q0 41 10 102l121 690h244l-115 -653q-10 -51 -10 -90q0 -127 133 -127q84 0 152.5 61.5t83.5 143.5l118 665h244l-151 -858l-15 -172h-209l4 119l-12 2q-115 -150 -313 -150q-285 1 -285 267zM561 1483q0 88 152 123l192 -389l-86 -60q-150 154 -219 236 q-39 45 -39 90z" />
<glyph unicode="&#xfa;" horiz-adv-x="1105" d="M178 238q0 41 10 102l121 690h244l-115 -653q-10 -51 -10 -90q0 -127 133 -127q84 0 152.5 61.5t83.5 143.5l118 665h244l-151 -858l-15 -172h-209l4 119l-12 2q-115 -150 -313 -150q-285 1 -285 267zM610 1221l297 376q137 -35 137 -108q0 -43 -75 -113 q-96 -86 -289 -219z" />
<glyph unicode="&#xfb;" horiz-adv-x="1105" d="M178 238q0 41 10 102l121 690h244l-115 -653q-10 -51 -10 -90q0 -127 133 -127q84 0 152.5 61.5t83.5 143.5l118 665h244l-151 -858l-15 -172h-209l4 119l-12 2q-115 -150 -313 -150q-285 1 -285 267zM442 1247q133 158 258 279q72 66 125 65q37 0 56.5 -13t46.5 -52 q92 -133 162 -283l-84 -63l-205 215l-279 -215z" />
<glyph unicode="&#xfc;" horiz-adv-x="1105" d="M178 238q0 41 10 102l121 690h244l-115 -653q-10 -51 -10 -90q0 -127 133 -127q84 0 152.5 61.5t83.5 143.5l118 665h244l-151 -858l-15 -172h-209l4 119l-12 2q-115 -150 -313 -150q-285 1 -285 267zM459 1341q0 59 45 102.5t110 43.5q49 0 79 -31t30 -76 q0 -59 -46 -102t-110 -43q-49 0 -78.5 29.5t-29.5 76.5zM858 1341q0 59 45 102.5t111 43.5q49 0 78.5 -31t29.5 -76q0 -59 -46 -102t-109 -43q-49 0 -79 29.5t-30 76.5z" />
<glyph unicode="&#xfd;" horiz-adv-x="1099" d="M125 -293q0 127 66.5 213t222.5 160q-119 14 -171.5 72.5t-52.5 162.5q0 47 9 91l110 624h244l-104 -598q-10 -51 -11 -88q0 -127 146 -127q78 0 142.5 54.5t78.5 140.5l110 618h242l-158 -901q-33 -190 -61 -283q-123 -391 -506 -391q-147 0 -227 68.5t-80 183.5z M352 -248q0 -55 34 -84.5t91 -29.5q193 0 246 290l37 199q-76 -74 -197 -135q-113 -57 -162 -107.5t-49 -132.5zM596 1221l297 376q137 -35 137 -108q0 -43 -76 -113q-96 -86 -288 -219z" />
<glyph unicode="&#xfe;" horiz-adv-x="1085" d="M47 -430l328 1853h243l-69 -391q129 27 215 27q356 0 356 -395q0 -319 -150.5 -509t-398.5 -190q-117 0 -200 55l-80 -450h-244zM406 219q72 -72 176 -72q117 0 203.5 139.5t86.5 346.5q0 240 -196 239q-92 0 -158 -22z" />
<glyph unicode="&#xff;" horiz-adv-x="1099" d="M125 -293q0 127 66.5 213t222.5 160q-119 14 -171.5 72.5t-52.5 162.5q0 47 9 91l110 624h244l-104 -598q-10 -51 -11 -88q0 -127 146 -127q78 0 142.5 54.5t78.5 140.5l110 618h242l-158 -901q-33 -190 -61 -283q-123 -391 -506 -391q-147 0 -227 68.5t-80 183.5z M352 -248q0 -55 34 -84.5t91 -29.5q193 0 246 290l37 199q-76 -74 -197 -135q-113 -57 -162 -107.5t-49 -132.5zM461 1341q0 59 45 102.5t110 43.5q49 0 79 -31t30 -76q0 -59 -46 -102t-110 -43q-49 0 -78.5 29.5t-29.5 76.5zM860 1341q0 59 45 102.5t111 43.5 q49 0 78.5 -31t29.5 -76q0 -59 -46 -102t-109 -43q-49 0 -79 29.5t-30 76.5z" />
<glyph unicode="&#x152;" horiz-adv-x="1796" d="M193 522q0 233 64.5 406.5t174 269.5t236.5 142t270 46q125 0 229 -24h791l-37 -217h-571l-60 -342h490l-39 -215h-490l-65 -371h586l-39 -217h-813q-125 -29 -234 -29q-236 0 -364.5 144.5t-128.5 406.5zM453 545q0 -365 299 -365q109 0 182 31l164 930q-74 35 -180 35 q-96 0 -175 -38t-132.5 -100.5t-89.5 -145.5t-52 -170t-16 -177z" />
<glyph unicode="&#x153;" horiz-adv-x="1617" d="M147 367q0 94 13 168q20 123 65 217t102.5 151.5t129 94t138.5 50t136 13.5q215 0 301 -162q152 162 387 162q139 0 217 -63.5t78 -176.5q0 -102 -49 -179t-118.5 -118t-166 -65.5t-167 -31.5t-148.5 -9q-1 -16 -1 -31q0 -91 43 -156q50 -76 171 -75.5t264 90.5l70 -158 q-55 -41 -160.5 -80t-234.5 -39q-227 0 -314 150q-141 -150 -381 -150q-180 0 -277.5 102.5t-97.5 295.5zM397 367q0 -217 162 -217q109 0 180.5 94t100.5 258q12 74 12 164q0 215 -160 215q-109 0 -181.5 -90.5t-98.5 -243.5q-15 -84 -15 -180zM1085 575q53 0 115 9.5 t131.5 30t114.5 66.5t45 107q0 47 -29.5 72t-79.5 25q-117 0 -193.5 -92.5t-103.5 -217.5z" />
<glyph unicode="&#x178;" horiz-adv-x="1138" d="M242 1362l295 -842l-93 -520h250l92 520l596 842h-276l-408 -602h-2l-192 602h-262zM524 1583q0 59 45 102.5t111 43.5q49 0 78.5 -31t29.5 -76q0 -59 -46 -102t-109 -43q-49 0 -79 29.5t-30 76.5zM924 1583q0 59 45 102.5t110 43.5q49 0 79 -31t30 -76q0 -59 -46 -102 t-110 -43q-49 0 -78.5 29.5t-29.5 76.5z" />
<glyph unicode="&#x2c6;" horiz-adv-x="1024" d="M406 1247q133 158 258 279q72 66 124 65q37 0 56.5 -13t46.5 -52q92 -133 162 -283l-84 -63l-205 215l-279 -215z" />
<glyph unicode="&#x2dc;" horiz-adv-x="1024" d="M453 1260l8 151q84 59 180 59q55 0 139 -26.5t129 -26.5q55 0 133 37l-10 -160q-78 -39 -147 -39q-47 0 -140.5 24t-132.5 24q-73 0 -159 -43z" />
<glyph unicode="&#x2013;" horiz-adv-x="1024" d="M88 500l29 170h1024l-29 -170h-1024z" />
<glyph unicode="&#x2014;" horiz-adv-x="2048" d="M88 500l29 170h2048l-29 -170h-2048z" />
<glyph unicode="&#x2018;" horiz-adv-x="448" d="M264 1061q0 111 281 440l123 -49l-199 -475q-33 -4 -66 -4q-139 0 -139 88z" />
<glyph unicode="&#x2019;" horiz-adv-x="440" d="M244 999l188 484q27 6 70 6q139 0 139 -86q0 -98 -272 -445z" />
<glyph unicode="&#x201a;" horiz-adv-x="456" d="M6 -258q80 254 135 377q45 109 127 108.5t154 -77.5l-291 -451z" />
<glyph unicode="&#x201c;" horiz-adv-x="776" d="M258 1061q0 111 281 440l123 -49l-199 -475q-33 -4 -66 -4q-139 0 -139 88zM598 1061q0 111 281 440l122 -49l-198 -475q-33 -4 -66 -4q-139 0 -139 88z" />
<glyph unicode="&#x201d;" horiz-adv-x="774" d="M244 999l188 484q27 6 70 6q139 0 139 -86q0 -98 -272 -445zM584 999l188 484q27 6 70 6q139 0 139 -86q0 -98 -272 -445z" />
<glyph unicode="&#x201e;" horiz-adv-x="804" d="M6 -258q80 254 135 377q45 109 127 108.5t154 -77.5l-291 -451zM346 -258q80 254 135 377q45 109 127 108.5t154 -77.5l-291 -451z" />
<glyph unicode="&#x2022;" horiz-adv-x="1024" d="M381 592q0 129 82 212t201 83q92 0 148 -57.5t56 -151.5q0 -131 -83 -214t-197 -83q-96 0 -151.5 57.5t-55.5 153.5z" />
<glyph unicode="&#x2026;" horiz-adv-x="1488" d="M98 84q0 70 48.5 117t119.5 47q59 0 91 -31t32 -82q0 -68 -46 -117t-120 -49q-61 0 -93 31t-32 84zM627 84q0 70 48 117t120 47q59 0 91 -31t32 -82q0 -68 -46.5 -117t-119.5 -49q-61 0 -93 31t-32 84zM1139 84q0 70 48 117t120 47q59 0 91 -31t32 -82q0 -68 -46.5 -117 t-119.5 -49q-61 0 -93 31t-32 84z" />
<glyph unicode="&#x2039;" horiz-adv-x="667" d="M199 539q0 47 69 104q113 92 398 287l84 -107l-316 -297l180 -323l-106 -82q-72 68 -162 175t-131 179q-16 27 -16 64z" />
<glyph unicode="&#x203a;" horiz-adv-x="667" d="M119 219l307 330l-203 291l107 90q158 -139 288 -285q41 -51 41 -88q0 -41 -38 -82q-59 -63 -192.5 -176t-225.5 -178z" />
<glyph unicode="&#x20ac;" d="M131 453h215q-127 -80 -127 -220q0 -113 90 -187.5t291 -74.5q276 0 498 127l-72 174q-201 -111 -367 -110q-88 0 -135 35.5t-47 99.5q0 72 49 114t136 42h360l31 168h-891zM174 696l31 168h194q-45 51 -45 146q0 162 138.5 249t343.5 87q258 0 442 -185l-137 -145 q-86 72 -158 106.5t-168 34.5q-92 0 -157.5 -39t-65.5 -125q0 -57 38 -93t105 -36h361l-31 -168h-891z" />
<glyph unicode="&#x2122;" horiz-adv-x="1413" d="M217 1221v141h545v-141h-195v-547h-164v547h-186zM813 674l43 688h168l152 -455l157 455h164l41 -688h-147l-21 426l-135 -377h-121l-133 375l-23 -424h-145z" />
<glyph unicode="&#xe000;" horiz-adv-x="1030" d="M0 1030h1030v-1030h-1030v1030z" />
<glyph unicode="&#xfb01;" horiz-adv-x="1075" d="M57 -430l271 1538q14 80 37.5 138.5t69.5 115.5t129 88t200 31q197 0 362 -92l-88 -162q-133 70 -262 69q-88 0 -137 -41t-66 -129l-16 -96h578l-183 -1030h-243l147 840h-332l-225 -1270h-242z" />
<glyph unicode="&#xfb02;" horiz-adv-x="1243" d="M57 -430l271 1538q14 82 36.5 140.5t69.5 115.5t130 87t202 30q133 0 295 -66l143 -18l-188 -1063q-9 -50 -10 -84q0 -32 9 -51q17 -39 79 -39q63 0 135 33l24 -164q-98 -63 -249 -64q-137 0 -198 61q-52 52 -53 126q0 11 2 23q9 89 23 192q2 18 4 28l78 445h-336 l-225 -1270h-242zM557 1030h338l39 234q-80 33 -170 32q-86 0 -130 -39.5t-61 -130.5z" />
<glyph unicode="&#xfb03;" horiz-adv-x="1656" d="M57 -430l271 1538q14 80 36.5 139.5t68.5 116.5t128 87t199 30q162 0 309 -76q102 76 281 76q190 0 356 -95l-86 -159q-133 70 -254 69q-92 0 -143.5 -38.5t-67.5 -131.5l-16 -96h577l-182 -1030h-244l148 840h-332l-225 -1270h-242l223 1270h-338l-225 -1270h-242z M557 1030h338l14 78q16 86 43 145q-102 43 -188 43t-130 -39.5t-61 -130.5z" />
<glyph unicode="&#xfb04;" horiz-adv-x="1826" d="M57 -430l271 1538q12 78 35.5 135t70.5 115.5t131 90.5t201 32q166 0 309 -76q137 76 301 76q195 0 412 -82l-189 -1063q-8 -43 -8 -82q0 -49 20.5 -70.5t67.5 -21.5q51 0 136 33l32 -166q-104 -59 -262 -60q-244 0 -244 226q0 43 11 108l94 537h-338l-225 -1270h-244 l225 1270h-340l-225 -1270h-242zM557 1030h340l14 78q16 86 41 137q-94 51 -188 51q-90 0 -133 -44t-62 -148zM1141 1030h338l41 232q-88 35 -172 34q-160 0 -191 -170z" />
</font>
</defs>
</svg>
